<?xml version="1.0" standalone="no"?>
<!DOCTYPE svg PUBLIC "-//W3C//DTD SVG 1.1//EN" "http://www.w3.org/Graphics/SVG/1.1/DTD/svg11.dtd" >
<svg>
<metadata>
Created by FontForge 20120731 at Thu Jun  5 20:10:43 2014
 By World Wide Web Server
generic is a trademark of generic
</metadata>
<defs>
<font id="generic-Bold" horiz-adv-x="500" >
  <font-face 
    font-family="generic"
    font-weight="700"
    font-stretch="normal"
    units-per-em="1000"
    panose-1="0 0 0 0 0 0 0 0 0 0"
    ascent="778"
    descent="-222"
    x-height="545"
    cap-height="755"
    bbox="-51 -232 1143 964"
    underline-thickness="0"
    underline-position="0"
    stemh="155"
    stemv="186"
    unicode-range="U+0020-2122"
  />
<missing-glyph horiz-adv-x="175" 
 />
    <glyph glyph-name=".notdef" horiz-adv-x="175" 
 />
    <glyph glyph-name="space" unicode=" " horiz-adv-x="175" 
 />
    <glyph glyph-name="exclam" unicode="!" horiz-adv-x="346" 
d="M80 0v175h186v-175h-186zM111 259l-24 251v268h172v-268l-25 -251h-123z" />
    <glyph glyph-name="quotedbl" unicode="&#x22;" horiz-adv-x="542" 
d="M107 407l-52 348h186l-52 -348h-82zM353 407l-52 348h186l-52 -348h-82z" />
    <glyph glyph-name="numbersign" unicode="#" horiz-adv-x="630" 
d="M318 0l29 177h-115l-29 -177h-105l29 177h-97v99h113l23 144h-96v99h113l25 156h105l-25 -156h115l25 156h105l-25 -156h92v-99h-109l-23 -144h92v-99h-108l-29 -177h-105zM363 276l23 144h-115l-23 -144h115z" />
    <glyph glyph-name="dollar" unicode="$" horiz-adv-x="686" 
d="M380 -142h-70v126c-172 11 -261 88 -286 223l181 21c13 -63 45 -95 105 -103v182l-60 12c-133 27 -197 92 -197 223c0 129 106 220 257 231v92h70v-93c151 -11 230 -85 261 -201l-173 -30c-15 47 -40 85 -88 98v-173l58 -11c127 -24 216 -75 216 -217
c0 -130 -90 -243 -274 -254v-126zM395 290l-15 3v-168c60 8 94 35 94 86c0 43 -22 68 -79 79zM303 481l7 -1v163c-59 -7 -84 -38 -84 -78c0 -53 25 -77 77 -84z" />
    <glyph glyph-name="percent" unicode="%" horiz-adv-x="799" 
d="M603 277c-29 0 -46 -24 -46 -103c0 -76 16 -103 47 -103c28 0 45 23 45 103c0 76 -17 103 -46 103zM439 174c0 120 74 188 168 188c100 0 162 -61 162 -188c0 -123 -71 -188 -166 -188c-101 0 -164 65 -164 188zM194 687c-29 0 -46 -24 -46 -103c0 -76 16 -103 47 -103
c28 0 45 23 45 103c0 76 -17 103 -46 103zM82 -14l514 786h116l-513 -786h-117zM30 584c0 120 74 188 168 188c100 0 162 -61 162 -188c0 -123 -71 -188 -166 -188c-101 0 -164 65 -164 188z" />
    <glyph glyph-name="ampersand" unicode="&#x26;" horiz-adv-x="736" 
d="M317 125c42 0 80 12 113 35l-169 162c-40 -31 -57 -60 -57 -97c0 -59 44 -100 113 -100zM255 595c0 -46 22 -66 62 -101c54 35 81 68 81 101c0 39 -27 69 -70 69c-47 0 -73 -30 -73 -69zM615 -18l-79 76c-59 -48 -133 -75 -222 -75c-181 0 -284 96 -284 224
c0 108 60 163 137 208c-51 55 -75 100 -75 171c0 113 93 195 236 195c163 0 226 -87 226 -177c0 -84 -47 -141 -144 -198l105 -100c7 33 11 70 11 110h155c0 -84 -16 -160 -45 -225l95 -91z" />
    <glyph glyph-name="quoteright" unicode="&#x2019;" horiz-adv-x="266" 
d="M62 411l-24 64c52 25 87 56 87 105h-85v175h186v-128c0 -93 -32 -170 -164 -216z" />
    <glyph glyph-name="parenleft" unicode="(" horiz-adv-x="345" 
d="M340 -163h-104c-54 64 -179 213 -179 480c0 269 126 415 179 481h104c-40 -67 -137 -220 -137 -481c0 -260 97 -413 137 -480z" />
    <glyph glyph-name="parenright" unicode=")" horiz-adv-x="345" 
d="M5 798h104c53 -64 179 -213 179 -480c0 -270 -128 -414 -179 -481h-104c40 67 137 220 137 481c0 260 -97 413 -137 480z" />
    <glyph glyph-name="asterisk" unicode="*" horiz-adv-x="468" 
d="M288 778l-16 -166l2 -1l146 70l33 -102l-150 -43v-3l114 -124l-93 -64l-88 143h-4l-88 -140l-93 64l115 124l-1 2l-149 42l35 99l140 -68l4 2l-15 165h108z" />
    <glyph glyph-name="plus" unicode="+" horiz-adv-x="600" 
d="M65 259v136h163v169h144v-169h163v-136h-163v-175h-144v175h-163z" />
    <glyph glyph-name="comma" unicode="," horiz-adv-x="306" 
d="M84 -197l-43 64c69 39 95 74 98 133h-79v175h186v-138c0 -101 -37 -181 -162 -234z" />
    <glyph glyph-name="hyphen" unicode="-" horiz-adv-x="437" 
d="M45 227v149h347v-149h-347z" />
    <glyph glyph-name="period" unicode="." horiz-adv-x="306" 
d="M60 0v175h186v-175h-186z" />
    <glyph glyph-name="slash" unicode="/" horiz-adv-x="436" 
d="M-43 -163l353 961h122l-352 -961h-123z" />
    <glyph glyph-name="zero" unicode="0" horiz-adv-x="736" 
d="M368 628c-77 0 -121 -64 -121 -252c0 -184 41 -252 121 -252c75 0 121 62 121 252c0 184 -44 252 -121 252zM53 376c0 262 120 393 316 393c200 0 314 -120 314 -393c0 -265 -116 -393 -316 -393c-203 0 -314 120 -314 393z" />
    <glyph glyph-name="one" unicode="1" horiz-adv-x="491" 
d="M401 0h-182v543l-128 -80l-73 129l257 163h126v-755z" />
    <glyph glyph-name="two" unicode="2" horiz-adv-x="647" 
d="M218 492l-170 16v9c0 124 94 252 287 252c165 0 261 -90 261 -215c0 -156 -96 -226 -293 -399v-3h299v-152h-551v128c260 235 366 316 366 407c0 60 -35 92 -91 92c-60 0 -100 -33 -107 -122z" />
    <glyph glyph-name="three" unicode="3" horiz-adv-x="653" 
d="M326 124c67 0 109 41 109 98c0 65 -50 97 -106 97h-79v135h71c53 0 97 24 97 87c0 56 -41 87 -92 87c-64 0 -103 -40 -111 -111l-172 20c16 132 113 233 293 233c164 0 261 -90 261 -202c0 -89 -52 -143 -125 -168v-3c92 -21 146 -92 146 -184
c0 -128 -112 -230 -291 -230c-196 0 -294 114 -302 249l180 13c12 -83 54 -121 121 -121z" />
    <glyph glyph-name="four" unicode="4" horiz-adv-x="669" 
d="M203 295h169v312h-5c-5 -13 -10 -26 -17 -41c-11 -25 -27 -60 -50 -100zM544 0h-175v148h-347v100l295 507h227v-460h92v-147h-92v-148z" />
    <glyph glyph-name="five" unicode="5" horiz-adv-x="651" 
d="M321 -15c-195 0 -275 97 -291 220l173 18c13 -78 67 -100 113 -100c69 0 111 45 111 121c0 69 -41 111 -114 111c-43 0 -73 -16 -100 -45l-153 49l77 396h435v-157h-313l-29 -156h2c40 35 81 46 138 46c140 0 238 -84 238 -241c0 -159 -118 -262 -287 -262z" />
    <glyph glyph-name="six" unicode="6" horiz-adv-x="698" 
d="M474 240c0 68 -44 116 -112 116s-112 -48 -112 -116s41 -115 112 -115c68 0 112 47 112 115zM642 581l-166 -39c-20 63 -53 89 -104 89c-71 0 -127 -71 -136 -210h2c39 44 86 70 173 70c129 0 242 -73 242 -241c0 -145 -110 -265 -292 -265c-186 0 -308 110 -308 353
c0 298 142 431 326 431c162 0 231 -89 263 -188z" />
    <glyph glyph-name="seven" unicode="7" horiz-adv-x="587" 
d="M75 0l284 598h-329v157h532v-123l-293 -632h-194z" />
    <glyph glyph-name="eight" unicode="8" horiz-adv-x="688" 
d="M458 223c0 68 -49 106 -114 106s-114 -38 -114 -106c0 -67 49 -105 114 -105s114 38 114 105zM241 551c0 -60 47 -92 103 -92s103 32 103 92s-47 92 -103 92s-103 -32 -103 -92zM344 774c172 0 275 -89 275 -209c0 -84 -45 -141 -109 -169v-3c73 -24 133 -88 133 -179
c0 -140 -111 -231 -298 -231s-300 88 -300 229c0 92 60 157 132 181v3c-65 28 -108 80 -108 167c0 120 103 211 275 211z" />
    <glyph glyph-name="nine" unicode="9" horiz-adv-x="701" 
d="M48 170l167 36c19 -61 60 -81 104 -81c77 0 133 48 136 211h-3c-34 -37 -75 -67 -158 -67c-139 0 -246 89 -246 241c0 144 103 261 293 261c186 0 307 -124 307 -363c0 -294 -134 -423 -326 -423c-153 0 -245 68 -274 185zM230 514c0 -68 43 -116 111 -116
s111 48 111 116s-40 116 -111 116c-68 0 -111 -48 -111 -116z" />
    <glyph glyph-name="colon" unicode=":" horiz-adv-x="306" 
d="M60 0v175h186v-175h-186zM60 370v175h186v-175h-186z" />
    <glyph glyph-name="semicolon" unicode=";" horiz-adv-x="306" 
d="M84 -211l-43 68c69 43 95 79 98 143h-79v175h186v-135c0 -110 -37 -192 -162 -251zM60 370v175h186v-175h-186z" />
    <glyph glyph-name="less" unicode="&#x3c;" horiz-adv-x="600" 
d="M535 58l-470 198v111l470 198v-129l-309 -123l309 -122v-133z" />
    <glyph glyph-name="equal" unicode="=" horiz-adv-x="600" 
d="M65 160v119h470v-119h-470zM65 374v119h470v-119h-470z" />
    <glyph glyph-name="greater" unicode="&#x3e;" horiz-adv-x="600" 
d="M65 566l470 -198v-111l-470 -198v129l309 123l-309 122v133z" />
    <glyph glyph-name="question" unicode="?" horiz-adv-x="590" 
d="M191 0v175h186v-175h-186zM204 259l-1 40c-2 77 32 104 96 150c61 43 87 65 87 112c0 45 -32 78 -92 78c-68 0 -101 -37 -113 -108l-173 26c13 110 97 228 288 228c175 0 274 -82 274 -215c0 -104 -47 -145 -122 -197c-64 -44 -81 -51 -83 -94l-1 -20h-160z" />
    <glyph glyph-name="at" unicode="@" horiz-adv-x="1072" 
d="M502 149c72 0 110 97 110 188c0 48 -18 85 -65 85c-61 0 -110 -86 -110 -190c0 -59 28 -83 65 -83zM524 -201c-273 0 -464 188 -464 457c0 300 218 504 506 504c291 0 451 -191 451 -414c0 -204 -130 -320 -279 -320c-75 0 -123 24 -146 85h-4c-43 -55 -85 -73 -149 -73
c-92 0 -166 66 -166 194c0 181 102 304 241 304c56 0 96 -23 119 -64h4l11 49h157l-60 -323c-9 -47 0 -77 51 -77c71 0 135 96 135 219c0 206 -136 349 -373 349c-246 0 -407 -188 -407 -425c0 -251 163 -392 384 -392c120 0 211 26 291 85l38 -55
c-79 -61 -174 -103 -340 -103z" />
    <glyph glyph-name="A" unicode="A" horiz-adv-x="783" 
d="M574 0l-51 160h-272l-50 -160h-186l261 755h231l261 -755h-194zM346 461l-48 -153h178l-48 153c-10 32 -19 64 -25 88c-4 14 -7 27 -10 39h-12c-3 -12 -6 -25 -10 -39c-6 -24 -15 -56 -25 -88z" />
    <glyph glyph-name="B" unicode="B" horiz-adv-x="733" 
d="M263 137h134c72 0 113 27 113 91c0 60 -44 88 -113 88h-134v-179zM263 618v-165h125c75 0 104 31 104 83s-29 82 -104 82h-125zM75 0v755h353c160 0 243 -80 243 -189c0 -77 -40 -138 -133 -167v-3c88 -16 157 -74 157 -170c0 -137 -101 -226 -272 -226h-348z" />
    <glyph glyph-name="C" unicode="C" horiz-adv-x="778" 
d="M412 -17c-244 0 -370 148 -370 388c0 237 143 400 370 400c191 0 309 -101 333 -236l-188 -28c-19 67 -65 113 -145 113c-95 0 -168 -71 -168 -240c0 -175 77 -246 168 -246c84 0 132 53 151 126l194 -32c-40 -141 -141 -245 -345 -245z" />
    <glyph glyph-name="D" unicode="D" horiz-adv-x="784" 
d="M265 152h69c124 0 211 50 211 230c0 163 -80 222 -211 222h-69v-452zM334 0h-259v755h259c221 0 410 -100 410 -376c0 -252 -158 -379 -410 -379z" />
    <glyph glyph-name="E" unicode="E" horiz-adv-x="657" 
d="M75 0v755h522v-155h-332v-147h284v-151h-284v-147h352v-155h-542z" />
    <glyph glyph-name="F" unicode="F" horiz-adv-x="609" 
d="M75 0v755h502v-155h-310v-174h262v-151h-262v-275h-192z" />
    <glyph glyph-name="G" unicode="G" horiz-adv-x="817" 
d="M374 -16c-195 0 -332 137 -332 384c0 253 154 403 373 403c187 0 292 -101 324 -227l-184 -30c-21 68 -60 112 -140 112c-95 0 -175 -71 -175 -246c0 -176 81 -249 173 -249c105 0 155 72 155 147v8h-162v133h337v-419h-144l-16 82h-5c-43 -63 -99 -98 -204 -98z" />
    <glyph glyph-name="H" unicode="H" horiz-adv-x="810" 
d="M543 0v308h-276v-308h-192v755h192v-291h276v291h192v-755h-192z" />
    <glyph glyph-name="I" unicode="I" horiz-adv-x="342" 
d="M75 0v755h192v-755h-192z" />
    <glyph glyph-name="J" unicode="J" horiz-adv-x="654" 
d="M309 -17c-175 0 -271 89 -284 217l184 18c12 -64 46 -85 98 -85c55 0 85 25 85 100v522h192v-513c0 -142 -70 -259 -275 -259z" />
    <glyph glyph-name="K" unicode="K" horiz-adv-x="770" 
d="M264 196v-196h-189v755h189v-331l258 331h206l-252 -312l284 -443h-226l-187 298z" />
    <glyph glyph-name="L" unicode="L" horiz-adv-x="629" 
d="M75 0v755h192v-598h334v-157h-526z" />
    <glyph glyph-name="M" unicode="M" horiz-adv-x="1007" 
d="M75 755h257l151 -429c9 -27 15 -50 18 -67l5 -27h6c1 9 2 18 5 28c4 17 9 40 19 68l150 427h246v-755h-187v510h-6l-8 -41c-5 -25 -14 -57 -25 -89l-133 -380h-147l-133 381c-11 32 -20 64 -25 88c-3 14 -6 28 -8 41h-6v-510h-179v755z" />
    <glyph glyph-name="N" unicode="N" horiz-adv-x="814" 
d="M75 0v755h208l233 -387c14 -23 24 -43 31 -59l12 -27h5v473h175v-755h-196l-241 397c-14 23 -25 46 -33 62c-5 9 -9 18 -12 26h-5v-485h-177z" />
    <glyph glyph-name="O" unicode="O" horiz-adv-x="826" 
d="M413 136c96 0 169 71 169 242s-73 241 -169 241s-169 -70 -169 -241s73 -242 169 -242zM412 -16c-233 0 -370 156 -370 394c0 236 140 393 372 393c233 0 370 -156 370 -393c0 -238 -140 -394 -372 -394z" />
    <glyph glyph-name="P" unicode="P" horiz-adv-x="715" 
d="M357 608h-90v-230h89c77 0 133 30 133 113s-55 117 -132 117zM75 0v755h309c173 0 294 -94 294 -261c0 -162 -116 -263 -295 -263h-116v-231h-192z" />
    <glyph glyph-name="Q" unicode="Q" horiz-adv-x="832" 
d="M416 125c8 0 15 0 22 1l-60 77l110 84l61 -78c19 39 29 93 29 169c0 179 -70 250 -162 250s-162 -72 -162 -251c0 -178 70 -252 162 -252zM608 -90l-72 92c-39 -12 -79 -19 -120 -19c-235 0 -371 155 -371 395s136 393 371 393s371 -153 371 -393
c0 -137 -51 -239 -130 -307l61 -77z" />
    <glyph glyph-name="R" unicode="R" horiz-adv-x="733" 
d="M502 0l-134 258h-101v-258h-192v755h330c172 0 279 -83 279 -231c0 -100 -51 -173 -134 -214v-2l161 -308h-209zM364 614h-97v-204h97c65 0 123 18 123 101c0 85 -58 103 -123 103z" />
    <glyph glyph-name="S" unicode="S" horiz-adv-x="721" 
d="M357 -17c-196 0 -319 103 -335 224l195 24c17 -64 72 -101 144 -101c83 0 120 34 120 82c0 35 -19 64 -91 79l-123 26c-140 30 -209 100 -209 224c0 131 109 232 301 232c178 0 287 -86 311 -208l-190 -24c-13 42 -40 89 -122 89c-79 0 -107 -34 -107 -69
c0 -37 19 -65 95 -81l122 -26c153 -33 214 -111 214 -224c0 -128 -85 -247 -325 -247z" />
    <glyph glyph-name="T" unicode="T" horiz-adv-x="672" 
d="M28 603v152h616v-152h-212v-603h-192v603h-212z" />
    <glyph glyph-name="U" unicode="U" horiz-adv-x="769" 
d="M387 -17c-239 0 -317 127 -317 304v468h193v-474c0 -84 35 -139 123 -139c87 0 122 58 122 139v474h191v-468c0 -174 -81 -304 -312 -304z" />
    <glyph glyph-name="V" unicode="V" horiz-adv-x="743" 
d="M208 755l137 -451c11 -35 18 -66 23 -89c3 -13 5 -26 8 -37h4c3 11 5 24 8 37c5 23 12 54 23 89l136 451h186l-252 -755h-219l-252 755h198z" />
    <glyph glyph-name="W" unicode="W" horiz-adv-x="1072" 
d="M655 0l-120 471l-119 -471h-230l-171 755h191l115 -542l140 542h165l139 -538l115 538h177l-171 -755h-231z" />
    <glyph glyph-name="X" unicode="X" horiz-adv-x="725" 
d="M26 755h204l135 -231l135 231h196l-232 -373l239 -382h-209l-138 239l-137 -239h-204l239 383z" />
    <glyph glyph-name="Y" unicode="Y" horiz-adv-x="700" 
d="M260 0v313l-258 442h204l155 -284l147 284h190l-246 -433v-322h-192z" />
    <glyph glyph-name="Z" unicode="Z" horiz-adv-x="690" 
d="M40 0v116l361 487h-342v152h579v-120l-360 -483h372v-152h-610z" />
    <glyph glyph-name="bracketleft" unicode="[" horiz-adv-x="345" 
d="M80 -163v961h260v-97h-128v-767h128v-97h-260z" />
    <glyph glyph-name="backslash" unicode="\" horiz-adv-x="437" 
d="M123 798l353 -961h-123l-352 961h122z" />
    <glyph glyph-name="bracketright" unicode="]" horiz-adv-x="345" 
d="M265 798v-961h-260v97h127v767h-127v97h260z" />
    <glyph glyph-name="underscore" unicode="_" horiz-adv-x="530" 
d="M30 -231v120h470v-120h-470z" />
    <glyph glyph-name="quoteleft" unicode="&#x2018;" horiz-adv-x="266" 
d="M204 792l24 -64c-52 -25 -87 -56 -87 -105h85v-175h-186v128c0 92 32 170 164 216z" />
    <glyph glyph-name="a" unicode="a" horiz-adv-x="626" 
d="M221 -13c-101 0 -186 59 -186 166c0 158 158 177 282 177c23 0 45 -2 68 -2c0 58 -6 99 -76 99c-40 0 -74 -17 -82 -59l-174 32c29 115 151 159 258 159c157 0 253 -60 253 -227c0 -111 -3 -222 5 -332h-173l-4 66c-43 -59 -99 -79 -171 -79zM282 106
c68 0 104 52 104 116v8c-20 0 -39 1 -59 1c-46 0 -110 -8 -110 -67c0 -38 29 -58 65 -58z" />
    <glyph glyph-name="b" unicode="b" horiz-adv-x="672" 
d="M346 113c54 0 101 47 101 160s-48 153 -99 153c-59 0 -102 -46 -102 -153c0 -119 46 -160 100 -160zM399 -12c-99 0 -140 43 -163 71v-59h-171v778h186v-311c23 42 68 89 158 89c154 0 225 -124 225 -273c0 -184 -103 -295 -235 -295z" />
    <glyph glyph-name="c" unicode="c" horiz-adv-x="607" 
d="M316 -15c-191 0 -281 112 -281 286c0 160 100 288 289 288c155 0 246 -91 257 -187l-182 -21c-11 45 -31 75 -82 75c-55 0 -96 -46 -96 -154c0 -112 43 -154 96 -154c48 0 77 35 85 80l182 -18c-21 -109 -101 -195 -268 -195z" />
    <glyph glyph-name="d" unicode="d" horiz-adv-x="672" 
d="M263 -11c-137 0 -225 110 -225 280c0 165 87 287 247 287c80 0 118 -39 136 -59v281h186v-778h-171v61c-36 -43 -84 -72 -173 -72zM326 113c69 0 100 65 100 156c0 92 -30 157 -98 157c-71 0 -103 -64 -103 -157c0 -91 32 -156 101 -156z" />
    <glyph glyph-name="e" unicode="e" horiz-adv-x="621" 
d="M314 436c-56 0 -93 -40 -100 -104h197c-3 64 -41 104 -97 104zM318 -15c-161 0 -283 111 -283 287c0 165 107 287 286 287c183 0 278 -121 274 -336h-382c7 -65 50 -107 110 -107c47 0 78 19 105 59l153 -39c-35 -86 -119 -151 -263 -151z" />
    <glyph glyph-name="f" unicode="f" horiz-adv-x="413" 
d="M16 422v123h81v17c0 148 63 222 226 222c21 0 42 -1 57 -3l25 -3l-12 -140c-8 1 -24 2 -39 2c-51 0 -71 -16 -71 -72v-23h108v-123h-108v-422h-186v422h-81z" />
    <glyph glyph-name="g" unicode="g" horiz-adv-x="672" 
d="M302 -232c-141 0 -226 62 -253 147l158 51c23 -49 54 -70 105 -70c72 0 111 40 111 119v60c-31 -39 -73 -72 -158 -72c-163 0 -227 132 -227 275c0 171 100 278 247 278c77 0 123 -31 151 -72v61h171v-481c0 -189 -86 -296 -305 -296zM326 125c67 0 100 63 100 154
s-33 154 -100 154s-101 -64 -101 -154c0 -91 34 -154 101 -154z" />
    <glyph glyph-name="h" unicode="h" horiz-adv-x="666" 
d="M251 778v-316c25 51 75 95 163 95c139 0 192 -87 192 -212v-345h-186v316c0 84 -47 100 -79 100c-38 0 -90 -19 -90 -123v-293h-186v778h186z" />
    <glyph glyph-name="i" unicode="i" horiz-adv-x="316" 
d="M65 0v545h186v-545h-186zM65 622v156h186v-156h-186z" />
    <glyph glyph-name="j" unicode="j" horiz-adv-x="316" 
d="M25 -232c-19 0 -37 1 -52 4c-8 1 -16 3 -24 5l13 140c11 -3 17 -5 32 -5c43 0 71 19 71 74v559h186v-549c0 -143 -73 -228 -226 -228zM65 622v156h186v-156h-186z" />
    <glyph glyph-name="k" unicode="k" horiz-adv-x="641" 
d="M430 0l-132 217l-48 -54v-163h-185v778h185v-429l167 196h205l-193 -212l207 -333h-206z" />
    <glyph glyph-name="l" unicode="l" horiz-adv-x="316" 
d="M65 0v778h186v-778h-186z" />
    <glyph glyph-name="m" unicode="m" horiz-adv-x="1021" 
d="M65 0v545h173v-92c27 53 83 103 176 103c84 0 147 -31 176 -108c31 63 87 108 179 108c139 0 192 -87 192 -212v-344h-186v316c0 83 -47 99 -79 99c-38 0 -90 -20 -90 -122v-293h-186v316c0 83 -47 99 -79 99c-38 0 -90 -20 -90 -122v-293h-186z" />
    <glyph glyph-name="n" unicode="n" horiz-adv-x="666" 
d="M65 0v545h173v-92c27 53 83 103 176 103c139 0 192 -87 192 -212v-344h-186v315c0 84 -47 100 -79 100c-38 0 -90 -19 -90 -123v-292h-186z" />
    <glyph glyph-name="o" unicode="o" horiz-adv-x="644" 
d="M322 118c69 0 100 61 100 154s-32 154 -100 154c-71 0 -101 -61 -101 -154s32 -154 101 -154zM319 -15c-184 0 -284 122 -284 287s104 287 289 287s285 -123 285 -287s-106 -287 -290 -287z" />
    <glyph glyph-name="p" unicode="p" horiz-adv-x="672" 
d="M65 -223v768h171v-83c38 52 84 94 178 94c149 0 220 -124 220 -273c0 -184 -105 -295 -249 -295c-72 0 -114 33 -134 51v-262h-186zM346 113c54 0 101 47 101 160s-46 153 -97 153c-59 0 -104 -46 -104 -153c0 -119 46 -160 100 -160z" />
    <glyph glyph-name="q" unicode="q" horiz-adv-x="672" 
d="M326 113c69 0 100 65 100 156c0 92 -32 157 -100 157c-71 0 -101 -64 -101 -157c0 -91 32 -156 101 -156zM421 -222v279c-32 -39 -73 -68 -150 -68c-145 0 -233 108 -233 280c0 161 83 287 251 287c72 0 118 -29 147 -68v57h171v-767h-186z" />
    <glyph glyph-name="r" unicode="r" horiz-adv-x="453" 
d="M65 0v545h173v-102h4c43 102 112 117 189 109l-12 -177c-13 3 -33 4 -50 4c-44 0 -72 -12 -91 -36c-18 -22 -27 -53 -27 -94v-249h-186z" />
    <glyph glyph-name="s" unicode="s" horiz-adv-x="595" 
d="M295 -17c-157 0 -247 62 -262 169l174 18c15 -48 48 -64 92 -64c53 0 79 15 79 45c0 24 -9 38 -58 46l-88 14c-124 20 -182 68 -182 169c0 104 100 179 247 179c151 0 236 -67 252 -163l-172 -18c-7 37 -31 59 -82 59c-43 0 -70 -15 -70 -40c0 -27 18 -38 62 -45l98 -16
c121 -20 171 -71 171 -164c0 -110 -79 -189 -261 -189z" />
    <glyph glyph-name="t" unicode="t" horiz-adv-x="428" 
d="M15 422v123h87l8 146h166v-146h112v-123h-108v-223c0 -57 26 -75 71 -75c19 0 28 1 40 2l9 -124c-11 -3 -22 -5 -35 -7c-23 -4 -55 -7 -95 -7c-131 0 -176 66 -175 195l1 239h-81z" />
    <glyph glyph-name="u" unicode="u" horiz-adv-x="656" 
d="M252 -13c-145 0 -192 94 -192 212v346h186v-317c0 -84 45 -101 74 -101c51 0 85 40 85 121v297h186v-545h-173v99c-27 -59 -77 -112 -166 -112z" />
    <glyph glyph-name="v" unicode="v" horiz-adv-x="596" 
d="M396 0h-196l-196 545h196l77 -258c8 -27 14 -55 18 -76c3 -12 5 -24 6 -36h6c2 12 4 24 7 36c4 21 11 48 19 75l77 259h182z" />
    <glyph glyph-name="w" unicode="w" horiz-adv-x="878" 
d="M513 0l-51 232c-6 27 -11 59 -15 83c-3 14 -5 28 -6 42h-7l-7 -42c-4 -24 -9 -55 -15 -82l-52 -233h-221l-131 545h181l47 -244c6 -33 12 -70 17 -101c2 -17 5 -35 7 -52h6l9 52c5 31 12 68 20 101l56 244h182l56 -244c8 -33 15 -74 21 -109l10 -60h6l8 60
c5 35 11 76 17 109l46 244h173l-132 -545h-225z" />
    <glyph glyph-name="x" unicode="x" horiz-adv-x="609" 
d="M392 0l-101 150l-97 -150h-184l196 276l-189 269h210l88 -135l85 135h187l-186 -263l198 -282h-207z" />
    <glyph glyph-name="y" unicode="y" horiz-adv-x="602" 
d="M132 -222l80 214l-208 553h194l85 -251c10 -29 16 -53 19 -74c2 -12 3 -23 4 -34h6c1 11 3 22 6 34c4 20 10 47 19 74l80 251h181l-286 -767h-180z" />
    <glyph glyph-name="z" unicode="z" horiz-adv-x="561" 
d="M53 408v137h460v-111l-247 -296h252v-138h-473v112l249 296h-241z" />
    <glyph glyph-name="braceleft" unicode="{" horiz-adv-x="350" 
d="M28 259v114h31c41 0 73 22 68 85l-12 164c-10 139 76 176 212 176h28v-94h-22c-69 0 -84 -21 -82 -82l6 -157c3 -89 -24 -126 -96 -145v-5c68 -15 101 -54 97 -138l-7 -164c-3 -59 13 -82 82 -82h22v-94h-32c-136 0 -218 38 -208 175l12 169c4 55 -25 78 -69 78h-30z" />
    <glyph glyph-name="bar" unicode="|" horiz-adv-x="266" 
d="M75 -163v961h116v-961h-116z" />
    <glyph glyph-name="braceright" unicode="}" horiz-adv-x="350" 
d="M322 376v-114h-31c-43 0 -73 -22 -68 -85l12 -164c10 -139 -76 -176 -212 -176h-28v94h22c69 0 84 21 82 82l-6 157c-3 89 24 126 96 145v5c-68 15 -101 54 -97 138l7 164c3 59 -13 82 -82 82h-22v94h32c136 0 218 -38 208 -175l-12 -169c-4 -55 25 -78 69 -78h30z" />
    <glyph glyph-name="exclamdown" unicode="&#xa1;" horiz-adv-x="346" 
d="M266 611v-175h-186v175h186zM235 352l24 -251v-268h-172v268l25 251h123z" />
    <glyph glyph-name="cent" unicode="&#xa2;" horiz-adv-x="607" 
d="M217 272c0 -103 26 -143 65 -156v313c-39 -15 -65 -57 -65 -157zM411 193l173 -17c-18 -95 -90 -179 -232 -190v-128h-70v128c-168 13 -247 121 -247 285c0 149 83 267 247 286v129h70v-128c138 -11 221 -97 229 -181l-174 -20c-11 41 -27 63 -55 72v-313
c29 11 46 34 59 77z" />
    <glyph glyph-name="sterling" unicode="&#xa3;" horiz-adv-x="661" 
d="M607 148v-148h-559v116c83 11 131 63 107 178h-92v121h67l-12 58c-35 170 63 297 250 297c148 0 228 -79 243 -212l-163 -28c-13 65 -32 98 -87 98c-60 0 -86 -39 -70 -130l15 -83h161v-121h-141c8 -74 -27 -118 -70 -142v-4h351z" />
    <glyph glyph-name="yen" unicode="&#xa5;" horiz-adv-x="736" 
d="M665 96h-201v-96h-183v96h-212v102h212v83h-212v102h191l-218 372h200l135 -259l126 259h191l-214 -372h185v-102h-201v-83h201v-102z" />
    <glyph glyph-name="section" unicode="&#xa7;" horiz-adv-x="619" 
d="M504 275v-3c39 -31 51 -70 51 -110c0 -107 -87 -179 -251 -179c-153 0 -232 70 -245 169l156 17c15 -49 52 -68 96 -68c51 0 76 16 76 47c0 23 -11 39 -46 45l-144 26c-79 14 -148 63 -148 149c0 59 22 96 77 125v2c-31 27 -42 62 -42 109c0 99 91 169 230 169
c160 0 225 -69 241 -162l-155 -16c-7 31 -35 65 -86 65c-44 0 -69 -17 -69 -44c0 -25 9 -38 56 -47l135 -26c75 -15 140 -59 140 -144c0 -57 -21 -96 -72 -124zM267 352l109 -21l34 -8c7 10 10 21 10 33c0 29 -18 49 -66 58l-105 20c-15 3 -27 6 -38 9
c-8 -11 -11 -22 -11 -33c0 -33 24 -50 67 -58z" />
    <glyph glyph-name="currency" unicode="&#xa4;" horiz-adv-x="600" 
d="M118 334c0 29 5 54 16 76l-87 88l86 87l87 -89c23 12 49 18 78 18c28 0 54 -6 77 -18l93 95l87 -87l-93 -96c11 -23 16 -48 16 -74c0 -27 -6 -52 -17 -76l90 -88l-89 -88l-89 88c-25 -11 -50 -16 -75 -16c-26 0 -51 5 -76 16l-89 -90l-88 85l91 90c-12 24 -18 50 -18 79z
M221 334c0 -51 34 -82 78 -82s78 33 78 82c0 47 -34 80 -78 80s-78 -32 -78 -80z" />
    <glyph glyph-name="quotesingle" unicode="'" horiz-adv-x="296" 
d="M107 407l-52 348h186l-52 -348h-82z" />
    <glyph glyph-name="quotedblleft" unicode="&#x201c;" horiz-adv-x="522" 
d="M204 792l24 -64c-52 -25 -87 -56 -87 -105h85v-175h-186v128c0 92 32 170 164 216zM460 792l24 -64c-52 -25 -87 -56 -87 -105h85v-175h-186v128c0 92 32 170 164 216z" />
    <glyph glyph-name="guillemotleft" unicode="&#xab;" horiz-adv-x="582" 
d="M151 470h147l-106 -208l106 -211h-149l-113 210zM383 470h147l-106 -208l106 -211h-149l-113 210z" />
    <glyph glyph-name="guilsinglleft" unicode="&#x2039;" horiz-adv-x="350" 
d="M151 470h147l-106 -208l106 -211h-149l-113 210z" />
    <glyph glyph-name="guilsinglright" unicode="&#x203a;" horiz-adv-x="350" 
d="M199 51h-147l106 208l-106 211h149l113 -210z" />
    <glyph glyph-name="endash" unicode="&#x2013;" horiz-adv-x="530" 
d="M30 241v120h470v-120h-470z" />
    <glyph glyph-name="dagger" unicode="&#x2020;" horiz-adv-x="325" 
d="M15 561v76h105v118h85v-118h105v-76h-105v-241h-85v241h-105z" />
    <glyph glyph-name="bullet" unicode="&#x2022;" horiz-adv-x="390" 
d="M57 295c0 76 62 137 138 137s137 -61 137 -137s-61 -138 -137 -138s-138 62 -138 138z" />
    <glyph glyph-name="quotedblright" unicode="&#x201d;" horiz-adv-x="522" 
d="M62 411l-24 64c52 25 87 56 87 105h-85v175h186v-128c0 -93 -32 -170 -164 -216zM318 411l-24 64c52 25 87 56 87 105h-85v175h186v-128c0 -93 -32 -170 -164 -216z" />
    <glyph glyph-name="guillemotright" unicode="&#xbb;" horiz-adv-x="582" 
d="M199 51h-147l106 208l-106 211h149l113 -210zM431 51h-147l106 208l-106 211h149l113 -210z" />
    <glyph glyph-name="perthousand" unicode="&#x2030;" horiz-adv-x="1173" 
d="M603 277c-29 0 -46 -24 -46 -103c0 -76 16 -103 47 -103c28 0 45 23 45 103c0 76 -17 103 -46 103zM977 277c-29 0 -46 -24 -46 -103c0 -76 16 -103 47 -103c28 0 45 23 45 103c0 76 -17 103 -46 103zM439 174c0 120 74 188 168 188c100 0 162 -61 162 -188
c0 -123 -71 -188 -166 -188c-101 0 -164 65 -164 188zM813 174c0 120 74 188 168 188c100 0 162 -61 162 -188c0 -123 -71 -188 -166 -188c-101 0 -164 65 -164 188zM194 687c-29 0 -46 -24 -46 -103c0 -76 16 -103 47 -103c28 0 45 23 45 103c0 76 -17 103 -46 103zM82 -14
l514 786h116l-513 -786h-117zM30 584c0 120 74 188 168 188c100 0 162 -61 162 -188c0 -123 -71 -188 -166 -188c-101 0 -164 65 -164 188z" />
    <glyph glyph-name="questiondown" unicode="&#xbf;" horiz-adv-x="590" 
d="M387 611v-175h-186v175h186zM374 352l1 -40c2 -77 -32 -104 -96 -150c-61 -43 -87 -65 -87 -112c0 -45 32 -78 92 -78c68 0 101 37 113 108l173 -26c-13 -110 -97 -228 -288 -228c-175 0 -274 82 -274 215c0 104 47 145 122 197c64 44 81 51 83 94l1 20h160z" />
    <glyph glyph-name="grave" unicode="`" 
d="M293 778l97 -167h-140l-139 167h182z" />
    <glyph glyph-name="acute" unicode="&#xb4;" 
d="M111 611l97 167h182l-139 -167h-140z" />
    <glyph glyph-name="circumflex" unicode="&#x2c6;" horiz-adv-x="494" 
d="M81 608v119l166 62l166 -62v-121l-166 60z" />
    <glyph glyph-name="tilde" unicode="&#x2dc;" 
d="M140 615h-95c3 104 50 154 133 154c55 0 106 -35 146 -35c29 0 43 13 43 38h99c-3 -107 -51 -155 -128 -155c-54 0 -118 37 -153 37c-25 0 -42 -8 -45 -39z" />
    <glyph glyph-name="dieresis" unicode="&#xa8;" 
d="M51 623v155h161v-155h-161zM288 623v155h161v-155h-161z" />
    <glyph glyph-name="emdash" unicode="&#x2014;" horiz-adv-x="930" 
d="M30 241v120h870v-120h-870z" />
    <glyph glyph-name="AE" unicode="&#xc6;" horiz-adv-x="1008" 
d="M464 0v160h-205l-59 -160h-190l305 755h633v-155h-297v-150h249v-145h-249v-150h317v-155h-504zM349 401l-37 -99h152v298h-44l-18 -52c-12 -35 -29 -83 -53 -147z" />
    <glyph glyph-name="OE" unicode="&#x152;" horiz-adv-x="1158" 
d="M586 0v66c-51 -57 -118 -79 -198 -79c-208 0 -346 153 -346 391c0 235 133 390 361 390c80 0 143 -30 183 -73v60h512v-155h-332v-150h284v-145h-284v-150h352v-155h-532zM413 133c97 0 171 72 171 245s-74 245 -171 245s-171 -73 -171 -246c0 -172 74 -244 171 -244z
" />
    <glyph glyph-name="ae" unicode="&#xe6;" horiz-adv-x="964" 
d="M282 104c51 0 106 38 106 118v7h-18c-11 0 -26 1 -43 1c-86 0 -110 -29 -110 -65s26 -61 65 -61zM657 436c-56 0 -93 -40 -100 -104h197c-3 64 -41 104 -97 104zM35 153c0 125 93 175 272 175h78v22c0 51 -25 77 -76 77c-48 0 -75 -24 -82 -59l-174 32
c19 75 94 159 258 159c84 0 138 -24 174 -67c37 39 99 67 180 67c181 0 277 -123 273 -336h-380c0 -63 49 -107 108 -107c48 0 78 19 105 59l153 -39c-35 -86 -119 -151 -263 -151c-105 0 -175 42 -219 102c-51 -73 -117 -102 -209 -102c-113 0 -198 73 -198 168z" />
    <glyph glyph-name="oe" unicode="&#x153;" horiz-adv-x="996" 
d="M322 118c69 0 100 61 100 154s-32 154 -100 154c-71 0 -101 -61 -101 -154s32 -154 101 -154zM690 436c-57 0 -93 -44 -97 -108h194c-3 64 -37 108 -97 108zM689 -15c-92 0 -148 27 -181 79h-2c-39 -49 -100 -79 -187 -79c-184 0 -284 122 -284 287s100 287 289 287
c79 0 144 -30 184 -91h2c44 60 100 91 185 91c192 0 281 -130 270 -335h-372c4 -65 40 -108 97 -108c55 0 79 18 98 57l165 -32c-32 -93 -115 -156 -264 -156z" />
    <glyph glyph-name="trademark" unicode="&#x2122;" horiz-adv-x="638" 
d="M273 456v299h102l44 -127l14 -47l3 -13h3l3 13c3 9 6 23 14 46l44 128h98v-299h-70v211h-3l-3 -19c-3 -12 -6 -29 -14 -52l-46 -140h-55l-47 141c-7 21 -11 39 -14 51c-2 7 -3 14 -4 19h-3v-211h-66zM94 456v235h-79v64h232v-64h-79v-235h-74z" />
    <glyph glyph-name="registered" unicode="&#xae;" horiz-adv-x="462" 
d="M146 451v225h93c51 0 89 -23 89 -70c0 -35 -22 -52 -45 -61l50 -94h-65l-43 81h-20v-81h-59zM205 573h25c28 0 37 11 37 30c0 16 -9 30 -34 30h-28v-60zM231 735c-95 0 -171 -79 -171 -174s76 -174 171 -174s171 79 171 174s-76 174 -171 174zM231 355
c-115 0 -206 91 -206 206s91 206 206 206s206 -91 206 -206s-91 -206 -206 -206z" />
    <glyph glyph-name="copyright" unicode="&#xa9;" horiz-adv-x="875" 
d="M437 149c-148 0 -217 91 -217 232c0 132 77 234 223 234c120 0 191 -76 199 -148l-141 -17c-9 35 -27 57 -63 57c-43 0 -74 -37 -74 -125c0 -91 33 -125 74 -125c36 0 58 29 65 62l141 -15c-16 -84 -79 -155 -207 -155zM114 377c0 -196 143 -330 323 -330
s324 134 324 330s-144 331 -324 331s-323 -135 -323 -331zM45 377c0 229 175 393 392 393c220 0 393 -164 393 -393s-176 -392 -393 -392c-220 0 -392 163 -392 392z" />
    <glyph glyph-name="Agrave" unicode="&#xc0;" horiz-adv-x="783" 
d="M574 0l-51 160h-272l-50 -160h-186l261 755h231l261 -755h-194zM346 461l-48 -153h178l-48 153c-10 32 -19 64 -25 88c-4 14 -7 27 -10 39h-12c-3 -12 -6 -25 -10 -39c-6 -24 -15 -56 -25 -88zM381 947l87 -142h-144l-131 142h188z" />
    <glyph glyph-name="Ccedilla" unicode="&#xc7;" horiz-adv-x="778" 
d="M406 -232c-60 0 -96 15 -129 47l54 45c20 -17 41 -29 65 -29c26 0 39 10 39 30s-12 30 -31 30c-15 0 -27 -3 -40 -8l-55 30l39 74c-201 24 -306 166 -306 384c0 237 143 400 370 400c191 0 309 -101 333 -236l-188 -28c-19 67 -65 113 -145 113c-95 0 -168 -71 -168 -240
c0 -175 77 -246 168 -246c84 0 132 53 151 126l194 -32c-40 -141 -141 -245 -345 -245h-6l-19 -32l3 -3c12 3 23 5 46 5c52 0 94 -34 94 -90c0 -63 -51 -95 -124 -95z" />
    <glyph glyph-name="Eacute" unicode="&#xc9;" horiz-adv-x="657" 
d="M75 0v755h522v-155h-332v-147h284v-151h-284v-147h352v-155h-542zM269 805l87 142h188l-130 -142h-145z" />
    <glyph glyph-name="Ecircumflex" unicode="&#xca;" horiz-adv-x="657" 
d="M75 0v755h522v-155h-332v-147h284v-151h-284v-147h352v-155h-542zM180 798v114l166 52l166 -52v-116l-166 50z" />
    <glyph glyph-name="Edieresis" unicode="&#xcb;" horiz-adv-x="657" 
d="M75 0v755h522v-155h-332v-147h284v-151h-284v-147h352v-155h-542zM142 805v155h161v-155h-161zM379 805v155h161v-155h-161z" />
    <glyph glyph-name="Egrave" unicode="&#xc8;" horiz-adv-x="657" 
d="M75 0v755h522v-155h-332v-147h284v-151h-284v-147h352v-155h-542zM344 947l87 -142h-144l-131 142h188z" />
    <glyph glyph-name="Idieresis" unicode="&#xcf;" horiz-adv-x="342" 
d="M75 0v755h192v-755h-192zM-8 805v155h156v-155h-156zM194 805v155h156v-155h-156z" />
    <glyph glyph-name="Ntilde" unicode="&#xd1;" horiz-adv-x="814" 
d="M75 0v755h208l233 -387c14 -23 24 -43 31 -59l12 -27h5v473h175v-755h-196l-241 397c-14 23 -25 46 -33 62c-5 9 -9 18 -12 26h-5v-485h-177zM321 800h-95c3 104 50 154 133 154c55 0 106 -35 146 -35c25 0 43 13 43 38h99c-3 -107 -51 -155 -128 -155
c-54 0 -118 37 -153 37c-23 0 -42 -8 -45 -39z" />
    <glyph glyph-name="Ocircumflex" unicode="&#xd4;" horiz-adv-x="826" 
d="M413 136c96 0 169 71 169 242s-73 241 -169 241s-169 -70 -169 -241s73 -242 169 -242zM412 -16c-233 0 -370 156 -370 394c0 236 140 393 372 393c233 0 370 -156 370 -393c0 -238 -140 -394 -372 -394zM247 798v114l166 52l166 -52v-116l-166 50z" />
    <glyph glyph-name="Odieresis" unicode="&#xd6;" horiz-adv-x="826" 
d="M413 136c96 0 169 71 169 242s-73 241 -169 241s-169 -70 -169 -241s73 -242 169 -242zM412 -16c-233 0 -370 156 -370 394c0 236 140 393 372 393c233 0 370 -156 370 -393c0 -238 -140 -394 -372 -394zM214 805v155h161v-155h-161zM451 805v155h161v-155h-161z" />
    <glyph glyph-name="agrave" unicode="&#xe0;" horiz-adv-x="626" 
d="M221 -13c-101 0 -186 59 -186 166c0 158 158 177 282 177c23 0 45 -2 68 -2c0 58 -6 99 -76 99c-40 0 -74 -17 -82 -59l-174 32c29 115 151 159 258 159c157 0 253 -60 253 -227c0 -111 -3 -222 5 -332h-173l-4 66c-43 -59 -99 -79 -171 -79zM282 106
c68 0 104 52 104 116v8c-20 0 -39 1 -59 1c-46 0 -110 -8 -110 -67c0 -38 29 -58 65 -58zM313 778l97 -167h-140l-139 167h182z" />
    <glyph glyph-name="ccedilla" unicode="&#xe7;" horiz-adv-x="607" 
d="M318 -232c-60 0 -96 15 -129 47l54 45c20 -17 41 -29 65 -29c26 0 39 10 39 30s-12 30 -31 30c-15 0 -27 -3 -40 -8l-55 30l40 75c-153 20 -226 127 -226 283c0 160 100 288 289 288c155 0 246 -91 257 -187l-182 -21c-11 45 -31 75 -82 75c-55 0 -96 -46 -96 -154
c0 -112 43 -154 96 -154c48 0 77 35 85 80l182 -18c-21 -109 -100 -195 -265 -195l-20 -34l3 -3c12 3 23 5 46 5c52 0 94 -34 94 -90c0 -63 -51 -95 -124 -95z" />
    <glyph glyph-name="eacute" unicode="&#xe9;" horiz-adv-x="621" 
d="M314 436c-56 0 -93 -40 -100 -104h197c-3 64 -41 104 -97 104zM318 -15c-161 0 -283 111 -283 287c0 165 107 287 286 287c183 0 278 -121 274 -336h-382c7 -65 50 -107 110 -107c47 0 78 19 105 59l153 -39c-35 -86 -119 -151 -263 -151zM241 611l97 167h182l-139 -167
h-140z" />
    <glyph glyph-name="ecircumflex" unicode="&#xea;" horiz-adv-x="621" 
d="M314 436c-56 0 -93 -40 -100 -104h197c-3 64 -41 104 -97 104zM318 -15c-161 0 -283 111 -283 287c0 165 107 287 286 287c183 0 278 -121 274 -336h-382c7 -65 50 -107 110 -107c47 0 78 19 105 59l153 -39c-35 -86 -119 -151 -263 -151zM157 608v119l166 62l166 -62
v-121l-166 60z" />
    <glyph glyph-name="edieresis" unicode="&#xeb;" horiz-adv-x="621" 
d="M314 436c-56 0 -93 -40 -100 -104h197c-3 64 -41 104 -97 104zM318 -15c-161 0 -283 111 -283 287c0 165 107 287 286 287c183 0 278 -121 274 -336h-382c7 -65 50 -107 110 -107c47 0 78 19 105 59l153 -39c-35 -86 -119 -151 -263 -151zM124 623v155h161v-155h-161z
M361 623v155h161v-155h-161z" />
    <glyph glyph-name="egrave" unicode="&#xe8;" horiz-adv-x="621" 
d="M314 436c-56 0 -93 -40 -100 -104h197c-3 64 -41 104 -97 104zM318 -15c-161 0 -283 111 -283 287c0 165 107 287 286 287c183 0 278 -121 274 -336h-382c7 -65 50 -107 110 -107c47 0 78 19 105 59l153 -39c-35 -86 -119 -151 -263 -151zM310 778l97 -167h-140l-139 167
h182z" />
    <glyph glyph-name="idieresis" unicode="&#xef;" horiz-adv-x="316" 
d="M65 0v545h186v-545h-186zM-23 623v155h161v-155h-161zM174 623v155h161v-155h-161z" />
    <glyph glyph-name="ntilde" unicode="&#xf1;" horiz-adv-x="666" 
d="M65 0v545h173v-92c27 53 83 103 176 103c139 0 192 -87 192 -212v-344h-186v315c0 84 -47 100 -79 100c-38 0 -90 -19 -90 -123v-292h-186zM240 615h-95c3 104 50 154 133 154c55 0 106 -35 146 -35c29 0 43 13 43 38h99c-3 -107 -51 -155 -128 -155
c-54 0 -118 37 -153 37c-25 0 -42 -8 -45 -39z" />
    <glyph glyph-name="ocircumflex" unicode="&#xf4;" horiz-adv-x="644" 
d="M322 118c69 0 100 61 100 154s-32 154 -100 154c-71 0 -101 -61 -101 -154s32 -154 101 -154zM319 -15c-184 0 -284 122 -284 287s104 287 289 287s285 -123 285 -287s-106 -287 -290 -287zM156 608v119l166 62l166 -62v-121l-166 60z" />
    <glyph glyph-name="odieresis" unicode="&#xf6;" horiz-adv-x="644" 
d="M322 118c69 0 100 61 100 154s-32 154 -100 154c-71 0 -101 -61 -101 -154s32 -154 101 -154zM319 -15c-184 0 -284 122 -284 287s104 287 289 287s285 -123 285 -287s-106 -287 -290 -287zM123 623v155h161v-155h-161zM360 623v155h161v-155h-161z" />
    <glyph glyph-name="Euro" unicode="&#x20ac;" horiz-adv-x="738" 
d="M543 226l167 -29c-27 -124 -108 -214 -292 -214c-164 0 -266 93 -301 254h-92v102h80c-1 11 -1 20 -1 31c0 15 0 27 1 42h-80v102h95c39 159 142 255 303 255c167 0 257 -84 282 -209l-170 -37c-15 60 -46 105 -113 105c-61 0 -104 -27 -121 -114h175v-102h-186v-28
c0 -16 0 -30 1 -45h185v-102h-173c20 -84 60 -113 123 -113c65 0 100 35 117 102z" />
    <glyph glyph-name="uni00A0" unicode="&#xa0;" horiz-adv-x="175" 
 />
    <glyph glyph-name="NULL" horiz-adv-x="0" 
 />
    <glyph glyph-name="CR" horiz-adv-x="333" 
 />
    <glyph glyph-name="glyph147" 
d="M300 947l87 -142h-144l-131 142h188z" />
    <glyph glyph-name="glyph148" 
d="M51 805v155h161v-155h-161zM288 805v155h161v-155h-161z" />
    <glyph glyph-name="glyph149" 
d="M115 805l87 142h188l-130 -142h-145z" />
    <glyph glyph-name="glyph150" horiz-adv-x="494" 
d="M81 798v114l166 52l166 -52v-116l-166 50z" />
    <glyph glyph-name="glyph151" 
d="M140 800h-95c3 104 50 154 133 154c55 0 106 -35 146 -35c25 0 43 13 43 38h99c-3 -107 -51 -155 -128 -155c-54 0 -118 37 -153 37c-23 0 -42 -8 -45 -39z" />
    </font>
</defs>
</svg>
