<?xml version="1.0" standalone="no"?>
<!DOCTYPE svg PUBLIC "-//W3C//DTD SVG 1.1//EN" "http://www.w3.org/Graphics/SVG/1.1/DTD/svg11.dtd" >
<svg>
<metadata>
Created by FontForge 20120731 at Thu Jun  5 20:10:56 2014
 By World Wide Web Server
generic is a trademark of generic
</metadata>
<defs>
<font id="generic-Medium" horiz-adv-x="500" >
  <font-face 
    font-family="generic Med"
    font-weight="500"
    font-stretch="normal"
    units-per-em="1000"
    panose-1="0 0 0 0 0 0 0 0 0 0"
    ascent="778"
    descent="-222"
    x-height="542"
    cap-height="755"
    bbox="-44 -232 1156 962"
    underline-thickness="0"
    underline-position="0"
    stemh="118"
    stemv="154"
    unicode-range="U+0020-2122"
  />
<missing-glyph horiz-adv-x="204" 
 />
    <glyph glyph-name=".notdef" horiz-adv-x="204" 
 />
    <glyph glyph-name="space" unicode=" " horiz-adv-x="204" 
 />
    <glyph glyph-name="exclam" unicode="!" horiz-adv-x="326" 
d="M79 0v163h167v-163h-167zM111 244l-21 259v275h146v-275l-22 -259h-103z" />
    <glyph glyph-name="quotedbl" unicode="&#x22;" horiz-adv-x="504" 
d="M105 425l-50 330h167l-50 -330h-67zM332 425l-50 330h167l-50 -330h-67z" />
    <glyph glyph-name="numbersign" unicode="#" horiz-adv-x="630" 
d="M325 0l29 181h-129l-29 -181h-91l29 181h-104v91h119l25 152h-104v91h119l26 160h91l-26 -160h129l26 160h91l-26 -160h100v-91h-115l-25 -152h100v-91h-115l-29 -181h-91zM369 272l25 152h-129l-25 -152h129z" />
    <glyph glyph-name="dollar" unicode="$" horiz-adv-x="671" 
d="M370 -142h-66v127c-164 11 -247 89 -271 220l148 21c17 -73 54 -109 123 -117v210l-48 10c-123 26 -194 89 -194 217c0 125 97 214 242 225v94h66v-94c141 -11 215 -85 246 -193l-142 -28c-19 53 -48 92 -104 104v-197l47 -10c132 -28 211 -81 211 -215
c0 -130 -90 -236 -258 -247v-127zM380 303l-10 2v-196c68 8 108 41 108 101c0 49 -27 79 -98 93zM302 471h2v186c-68 -8 -97 -45 -97 -90c0 -61 34 -83 95 -96z" />
    <glyph glyph-name="percent" unicode="%" horiz-adv-x="811" 
d="M611 285c-37 0 -59 -30 -59 -111c0 -80 21 -111 60 -111c35 0 58 28 58 111c0 80 -22 111 -59 111zM448 174c0 120 74 188 167 188c100 0 161 -61 161 -188c0 -123 -70 -188 -165 -188c-101 0 -163 65 -163 188zM198 693c-37 0 -59 -28 -59 -111c0 -80 21 -110 60 -110
c36 0 58 27 58 110c0 80 -22 111 -59 111zM98 -14l510 784h102l-509 -784h-103zM35 582c0 120 74 188 167 188c100 0 161 -61 161 -188c0 -123 -70 -188 -165 -188c-101 0 -163 65 -163 188z" />
    <glyph glyph-name="ampersand" unicode="&#x26;" horiz-adv-x="720" 
d="M311 108c50 0 93 15 130 46l-176 181c-59 -39 -80 -72 -80 -117c0 -64 46 -110 126 -110zM246 597c0 -45 21 -69 68 -114c65 41 92 77 92 116c0 41 -29 74 -78 74c-53 0 -82 -35 -82 -76zM608 -17l-81 83c-57 -52 -131 -82 -219 -82c-176 0 -270 94 -270 218
c0 108 58 162 149 213c-51 56 -78 103 -78 174c0 109 88 188 219 188c150 0 212 -85 212 -171c0 -85 -51 -142 -148 -201l124 -126c11 36 16 78 16 126h129c0 -84 -17 -160 -48 -225l94 -96z" />
    <glyph glyph-name="quoteright" unicode="&#x2019;" horiz-adv-x="254" 
d="M54 427l-20 60c52 23 87 52 87 105h-77v163h166v-124c0 -91 -36 -164 -156 -204z" />
    <glyph glyph-name="parenleft" unicode="(" horiz-adv-x="336" 
d="M329 -163h-94c-51 64 -168 213 -168 480c0 270 120 414 168 481h94c-40 -67 -136 -220 -136 -481c0 -260 96 -413 136 -480z" />
    <glyph glyph-name="parenright" unicode=")" horiz-adv-x="336" 
d="M7 798h94c50 -63 169 -214 169 -480c0 -270 -120 -413 -169 -481h-94c40 67 136 220 136 481c0 259 -96 414 -136 480z" />
    <glyph glyph-name="asterisk" unicode="*" horiz-adv-x="468" 
d="M284 778l-15 -168l3 -2l149 69l30 -95l-153 -44v-4l113 -126l-84 -60l-91 144h-4l-92 -141l-84 60l115 126l-1 2l-152 43l32 93l144 -67l4 3l-14 167h100z" />
    <glyph glyph-name="plus" unicode="+" horiz-adv-x="600" 
d="M65 268v118h175v178h120v-178h175v-118h-175v-184h-120v184h-175z" />
    <glyph glyph-name="comma" unicode="," horiz-adv-x="293" 
d="M75 -185l-33 59c64 33 91 65 94 126h-73v163h167v-131c0 -99 -40 -172 -155 -217z" />
    <glyph glyph-name="hyphen" unicode="-" horiz-adv-x="441" 
d="M52 234v132h338v-132h-338z" />
    <glyph glyph-name="period" unicode="." horiz-adv-x="293" 
d="M63 0v163h167v-163h-167z" />
    <glyph glyph-name="slash" unicode="/" horiz-adv-x="429" 
d="M-37 -163l353 961h104l-352 -961h-105z" />
    <glyph glyph-name="zero" unicode="0" horiz-adv-x="718" 
d="M359 644c-89 0 -138 -73 -138 -268c0 -191 48 -268 139 -268c85 0 137 71 137 268c0 189 -49 268 -138 268zM59 376c0 261 116 392 301 392c189 0 299 -123 299 -392c0 -265 -116 -392 -300 -392c-192 0 -300 120 -300 392z" />
    <glyph glyph-name="one" unicode="1" horiz-adv-x="477" 
d="M377 0h-152v569l-134 -87l-65 112l241 161h110v-755z" />
    <glyph glyph-name="two" unicode="2" horiz-adv-x="640" 
d="M203 500l-143 14v11c0 121 91 243 270 243c167 0 250 -94 250 -210c0 -150 -81 -219 -313 -422v-3h321v-133h-530v117c282 258 371 329 371 426c0 64 -40 100 -105 100c-73 0 -114 -43 -120 -128z" />
    <glyph glyph-name="three" unicode="3" horiz-adv-x="649" 
d="M324 108c72 0 124 44 124 109c0 72 -51 111 -128 111h-71v120h67c65 0 113 31 113 99c0 61 -42 97 -106 97c-71 0 -114 -42 -123 -121l-144 17c13 129 107 229 275 229c160 0 249 -89 249 -201c0 -87 -48 -141 -127 -168v-4c92 -20 148 -88 148 -184
c0 -128 -105 -228 -279 -228c-179 0 -271 105 -284 237l150 13c15 -84 60 -126 136 -126z" />
    <glyph glyph-name="four" unicode="4" horiz-adv-x="656" 
d="M182 289h193v323h-5l-14 -34c-10 -24 -22 -54 -45 -89zM520 0h-147v160h-342v93l307 502h182v-466h98v-129h-98v-160z" />
    <glyph glyph-name="five" unicode="5" horiz-adv-x="645" 
d="M314 -15c-186 0 -260 100 -276 216l145 16c16 -86 75 -111 131 -111c73 0 127 49 127 137c0 83 -47 129 -131 129c-53 0 -89 -19 -117 -54l-126 44l71 393h420v-137h-316l-32 -178h2c39 36 83 51 147 51c132 0 234 -84 234 -243c0 -160 -111 -263 -279 -263z" />
    <glyph glyph-name="six" unicode="6" horiz-adv-x="683" 
d="M482 239c0 79 -49 131 -129 131c-76 0 -127 -51 -127 -131c0 -81 52 -131 129 -131c71 0 127 50 127 131zM620 583l-141 -31c-20 68 -58 95 -114 95c-91 0 -146 -86 -153 -239h2c39 51 90 82 179 82c128 0 239 -75 239 -242c0 -142 -107 -263 -279 -263
c-175 0 -294 105 -294 355c0 291 129 428 311 428c149 0 221 -82 250 -185z" />
    <glyph glyph-name="seven" unicode="7" horiz-adv-x="576" 
d="M85 0l297 618h-349v137h515v-111l-301 -644h-162z" />
    <glyph glyph-name="eight" unicode="8" horiz-adv-x="671" 
d="M466 219c0 73 -54 118 -130 118s-130 -45 -130 -118s54 -117 130 -117c77 0 130 44 130 117zM221 553c0 -68 52 -102 115 -102s115 35 115 102c0 68 -52 103 -115 103c-65 0 -115 -35 -115 -103zM336 772c165 0 261 -89 261 -206c0 -85 -46 -142 -110 -170v-3
c72 -24 134 -84 134 -183c0 -135 -106 -226 -285 -226s-285 88 -285 225c0 97 62 160 132 184v3c-64 28 -108 81 -108 168c0 117 96 208 261 208z" />
    <glyph glyph-name="nine" unicode="9" horiz-adv-x="684" 
d="M56 169l140 28c20 -67 61 -90 117 -90c95 0 152 66 152 242h-3c-35 -47 -84 -80 -168 -80c-135 0 -242 87 -242 243c0 139 100 258 283 258c168 0 290 -114 290 -360c0 -291 -116 -425 -312 -425c-147 0 -233 68 -257 184zM205 515c0 -79 50 -130 127 -130
c72 0 127 53 127 130c0 80 -51 131 -127 131c-73 0 -127 -50 -127 -131z" />
    <glyph glyph-name="colon" unicode=":" horiz-adv-x="293" 
d="M63 0v163h167v-163h-167zM63 366v163h167v-163h-167z" />
    <glyph glyph-name="semicolon" unicode=";" horiz-adv-x="293" 
d="M82 -201l-38 61c63 39 88 73 91 140h-72v163h167v-129c0 -104 -35 -181 -148 -235zM63 366v163h167v-163h-167z" />
    <glyph glyph-name="less" unicode="&#x3c;" horiz-adv-x="600" 
d="M535 56l-470 206v96l470 205v-115l-330 -137l330 -136v-119z" />
    <glyph glyph-name="equal" unicode="=" horiz-adv-x="600" 
d="M65 173v105h470v-105h-470zM65 375v105h470v-105h-470z" />
    <glyph glyph-name="greater" unicode="&#x3e;" horiz-adv-x="600" 
d="M65 563l470 -205v-96l-470 -206v115l330 137l-330 136v119z" />
    <glyph glyph-name="question" unicode="?" horiz-adv-x="568" 
d="M188 0v163h167v-163h-167zM204 244l-1 46c-2 77 24 104 93 154c67 48 94 73 94 126c0 52 -39 87 -107 87c-79 0 -115 -42 -130 -118l-143 23c13 114 103 223 276 223c167 0 258 -80 258 -209c0 -99 -48 -144 -125 -200c-62 -46 -79 -58 -79 -102v-30h-136z" />
    <glyph glyph-name="at" unicode="@" horiz-adv-x="1072" 
d="M500 140c83 0 123 106 123 198c0 59 -24 97 -77 97c-77 0 -123 -94 -123 -197c0 -64 26 -98 77 -98zM521 -197c-269 0 -460 187 -460 456c0 299 218 502 504 502c289 0 449 -189 449 -413c0 -203 -124 -317 -264 -317c-73 0 -123 23 -143 86h-4c-37 -52 -79 -76 -150 -76
c-96 0 -167 68 -167 197c0 171 94 298 235 298c60 0 101 -26 124 -67h3l12 54h128l-54 -318c-9 -53 2 -87 58 -87c72 0 141 95 141 225c0 205 -140 349 -376 349c-245 0 -410 -188 -410 -425c0 -252 170 -394 387 -394c120 0 211 27 291 86l37 -53
c-80 -61 -173 -103 -341 -103z" />
    <glyph glyph-name="A" unicode="A" horiz-adv-x="763" 
d="M581 0l-59 175h-288l-59 -175h-155l265 755h192l266 -755h-162zM342 495l-64 -190h200l-64 190c-10 29 -17 56 -23 79l-9 36h-9l-9 -35c-6 -21 -12 -51 -22 -80z" />
    <glyph glyph-name="B" unicode="B" horiz-adv-x="723" 
d="M239 122h156c84 0 129 32 129 104c0 68 -50 101 -125 101h-160v-205zM239 634v-187h145c83 0 117 35 117 94c0 61 -33 93 -120 93h-142zM82 0v755h332c155 0 238 -78 238 -186c0 -81 -41 -140 -128 -169v-3c83 -16 155 -72 155 -172c0 -137 -101 -225 -271 -225h-326z
" />
    <glyph glyph-name="C" unicode="C" horiz-adv-x="766" 
d="M406 -16c-225 0 -357 143 -357 388c0 236 142 398 358 398c183 0 289 -99 318 -222l-153 -31c-28 73 -81 120 -166 120c-113 0 -190 -87 -190 -258c0 -179 82 -263 190 -263c104 0 153 66 171 134l158 -31c-30 -118 -125 -235 -329 -235z" />
    <glyph glyph-name="D" unicode="D" horiz-adv-x="772" 
d="M240 132h87c144 0 232 57 232 249c0 174 -82 241 -232 241h-87v-490zM327 0h-245v755h245c220 0 397 -97 397 -376c0 -254 -150 -379 -397 -379z" />
    <glyph glyph-name="E" unicode="E" horiz-adv-x="650" 
d="M82 0v755h504v-136h-346v-174h301v-133h-301v-176h362v-136h-520z" />
    <glyph glyph-name="F" unicode="F" horiz-adv-x="601" 
d="M82 0v755h485v-136h-326v-196h276v-133h-276v-290h-159z" />
    <glyph glyph-name="G" unicode="G" horiz-adv-x="802" 
d="M378 -16c-192 0 -329 135 -329 386c0 250 151 400 363 400c178 0 276 -99 308 -213l-151 -33c-28 72 -73 118 -160 118c-112 0 -196 -87 -196 -263c0 -173 81 -265 193 -265c124 0 173 84 173 167v11h-175v119h320v-411h-123l-11 86h-5c-39 -61 -99 -102 -207 -102z" />
    <glyph glyph-name="H" unicode="H" horiz-adv-x="793" 
d="M552 0v318h-311v-318h-159v755h159v-301h311v301h160v-755h-160z" />
    <glyph glyph-name="I" unicode="I" horiz-adv-x="323" 
d="M82 0v755h159v-755h-159z" />
    <glyph glyph-name="J" unicode="J" horiz-adv-x="641" 
d="M297 -16c-169 0 -256 89 -269 218l152 17c11 -75 51 -105 116 -105c76 0 109 36 109 116v525h159v-514c0 -136 -60 -257 -267 -257z" />
    <glyph glyph-name="K" unicode="K" horiz-adv-x="747" 
d="M239 214v-214h-157v755h157v-344l286 344h175l-263 -314l290 -441h-189l-211 319z" />
    <glyph glyph-name="L" unicode="L" horiz-adv-x="616" 
d="M82 0v755h159v-617h344v-138h-503z" />
    <glyph glyph-name="M" unicode="M" horiz-adv-x="985" 
d="M82 755h221l169 -468c9 -24 13 -46 17 -62c3 -9 5 -18 6 -27h5c1 8 3 17 6 27c4 16 9 39 18 63l169 467h210v-755h-154v547h-5c-2 -11 -4 -23 -7 -35c-5 -21 -11 -48 -21 -76l-160 -436h-132l-160 437c-10 27 -16 55 -21 76c-3 12 -5 23 -7 34h-5v-547h-149v755z" />
    <glyph glyph-name="N" unicode="N" horiz-adv-x="795" 
d="M82 0v755h176l266 -435c11 -19 20 -39 27 -54l11 -25h4v514h147v-755h-168l-272 442c-12 20 -23 40 -29 55l-10 25h-4v-522h-148z" />
    <glyph glyph-name="O" unicode="O" horiz-adv-x="815" 
d="M407 117c113 0 192 83 192 260c0 179 -79 260 -192 260s-191 -83 -191 -260s78 -260 191 -260zM406 -16c-224 0 -357 152 -357 393c0 239 139 393 359 393c223 0 358 -151 358 -393c0 -240 -139 -393 -360 -393z" />
    <glyph glyph-name="P" unicode="P" horiz-adv-x="688" 
d="M350 626h-109v-247h107c88 0 147 35 147 122c0 88 -58 125 -145 125zM82 0v755h288c164 0 282 -86 282 -252c0 -160 -114 -253 -286 -253h-125v-250h-159z" />
    <glyph glyph-name="Q" unicode="Q" horiz-adv-x="819" 
d="M409 109c15 0 30 2 47 5l-67 83l93 76l71 -88c28 43 43 105 43 192c0 180 -76 267 -187 267c-110 0 -186 -87 -186 -267c0 -181 76 -268 186 -268zM619 -89l-78 97c-42 -16 -86 -24 -132 -24c-223 0 -358 149 -358 393s138 393 359 393c223 0 358 -149 358 -393
c0 -137 -48 -238 -124 -305l69 -85z" />
    <glyph glyph-name="R" unicode="R" horiz-adv-x="717" 
d="M512 0l-150 273h-121v-273h-159v755h304c171 0 272 -80 272 -228c0 -101 -54 -172 -142 -211v-2l171 -314h-175zM355 631h-114v-225h118c74 0 136 20 136 111s-59 114 -140 114z" />
    <glyph glyph-name="S" unicode="S" horiz-adv-x="708" 
d="M351 -16c-184 0 -298 101 -319 216l159 25c23 -72 83 -112 164 -112c92 0 141 37 141 97c0 43 -24 74 -112 93l-110 24c-128 28 -205 93 -205 217c-1 127 104 227 284 227c173 0 268 -81 297 -196l-154 -27c-22 52 -55 97 -144 97s-123 -40 -123 -83
c0 -48 30 -76 113 -94l113 -24c149 -32 207 -109 207 -217c0 -132 -94 -243 -311 -243z" />
    <glyph glyph-name="T" unicode="T" horiz-adv-x="657" 
d="M29 621v134h599v-134h-220v-621h-159v621h-220z" />
    <glyph glyph-name="U" unicode="U" horiz-adv-x="764" 
d="M384 -16c-224 0 -307 120 -307 295v476h160v-477c0 -96 40 -156 147 -156c104 0 146 61 146 156v477h157v-476c0 -172 -83 -295 -303 -295z" />
    <glyph glyph-name="V" unicode="V" horiz-adv-x="733" 
d="M182 755l160 -484c10 -31 16 -58 21 -79c3 -12 5 -23 7 -34h4c2 11 4 22 7 34c5 21 12 48 22 79l159 484h154l-259 -755h-181l-259 755h165z" />
    <glyph glyph-name="W" unicode="W" horiz-adv-x="1062" 
d="M665 0l-133 520l-132 -520h-197l-179 755h160l131 -577l148 577h149l147 -570l131 570h148l-178 -755h-195z" />
    <glyph glyph-name="X" unicode="X" horiz-adv-x="706" 
d="M33 755h173l150 -247l151 247h165l-233 -371l243 -384h-176l-158 258l-158 -258h-170l244 385z" />
    <glyph glyph-name="Y" unicode="Y" horiz-adv-x="687" 
d="M268 0v312l-256 443h170l170 -304l165 304h158l-247 -435v-320h-160z" />
    <glyph glyph-name="Z" unicode="Z" horiz-adv-x="680" 
d="M45 0v104l386 518h-366v133h562v-107l-386 -515h391v-133h-587z" />
    <glyph glyph-name="bracketleft" unicode="[" horiz-adv-x="336" 
d="M87 -163v961h238v-86h-122v-789h122v-86h-238z" />
    <glyph glyph-name="backslash" unicode="\" horiz-adv-x="430" 
d="M111 798l353 -961h-106l-352 961h105z" />
    <glyph glyph-name="bracketright" unicode="]" horiz-adv-x="336" 
d="M250 798v-961h-238v86h120v789h-120v86h238z" />
    <glyph glyph-name="underscore" unicode="_" horiz-adv-x="530" 
d="M30 -229v107h470v-107h-470z" />
    <glyph glyph-name="quoteleft" unicode="&#x2018;" horiz-adv-x="254" 
d="M199 788l21 -59c-52 -23 -87 -52 -87 -105h77v-163h-167v123c0 91 36 164 156 204z" />
    <glyph glyph-name="a" unicode="a" horiz-adv-x="611" 
d="M224 -13c-99 0 -182 59 -182 164c0 154 153 177 275 177c26 0 51 -2 77 -2c0 70 -11 113 -93 113c-47 0 -85 -19 -96 -67l-143 30c25 111 140 155 243 155c153 0 237 -65 237 -223c0 -111 -3 -223 5 -334h-144l-4 70c-42 -62 -101 -83 -175 -83zM271 94
c78 0 124 55 124 131v10c-23 0 -46 1 -69 1c-53 0 -132 -6 -132 -76c0 -44 37 -66 77 -66z" />
    <glyph glyph-name="b" unicode="b" horiz-adv-x="662" 
d="M340 100c75 0 121 59 121 172c0 117 -49 166 -117 166c-76 0 -122 -56 -122 -167c0 -120 47 -171 118 -171zM376 -13c-95 0 -137 44 -160 75v-62h-142v778h155v-315c24 41 67 91 162 91c159 0 227 -128 227 -274c0 -177 -94 -293 -242 -293z" />
    <glyph glyph-name="c" unicode="c" horiz-adv-x="594" 
d="M313 -15c-184 0 -271 114 -271 282c0 160 94 289 279 289c145 0 227 -87 240 -171l-149 -25c-13 43 -37 78 -98 78c-72 0 -117 -58 -117 -167c0 -115 46 -168 118 -168c59 0 90 37 105 84l146 -23c-26 -100 -102 -179 -253 -179z" />
    <glyph glyph-name="d" unicode="d" horiz-adv-x="662" 
d="M273 -12c-137 0 -229 105 -229 279c0 161 84 287 250 287c79 0 121 -39 140 -66v290h154v-778h-143v67c-31 -42 -81 -79 -172 -79zM319 100c84 0 121 70 121 169s-37 169 -117 169c-84 0 -123 -70 -123 -169s36 -169 119 -169z" />
    <glyph glyph-name="e" unicode="e" horiz-adv-x="609" 
d="M310 446c-71 0 -110 -49 -117 -117h228c-4 71 -43 117 -111 117zM314 -15c-160 0 -272 112 -272 285c0 164 101 286 274 286c179 0 264 -126 261 -326h-385c5 -76 55 -128 127 -128c55 0 88 21 116 64l126 -40c-35 -80 -116 -141 -247 -141z" />
    <glyph glyph-name="f" unicode="f" horiz-adv-x="396" 
d="M21 433v109h84v41c0 135 63 201 199 201c21 0 40 -2 55 -4l24 -3l-10 -124c-12 3 -28 4 -44 4c-55 0 -70 -21 -70 -76v-39h112v-109h-112v-433h-154v433h-84z" />
    <glyph glyph-name="g" unicode="g" horiz-adv-x="662" 
d="M301 -232c-142 0 -218 62 -245 145l134 45c21 -52 57 -76 117 -76c85 0 128 43 128 129v70c-29 -45 -75 -80 -163 -80c-157 0 -228 128 -228 274c0 167 95 279 245 279c84 0 129 -35 156 -78v66h143v-488c0 -180 -78 -286 -287 -286zM320 112c80 0 120 67 120 166
c0 96 -41 165 -118 165c-83 0 -122 -70 -122 -166c0 -97 39 -165 120 -165z" />
    <glyph glyph-name="h" unicode="h" horiz-adv-x="651" 
d="M228 778v-317c25 49 76 94 164 94c133 0 190 -87 190 -209v-346h-154v317c0 92 -50 113 -94 113c-53 0 -106 -28 -106 -133v-297h-154v778h154z" />
    <glyph glyph-name="i" unicode="i" horiz-adv-x="301" 
d="M74 0v542h154v-542h-154zM72 629v143h158v-143h-158z" />
    <glyph glyph-name="j" unicode="j" horiz-adv-x="301" 
d="M31 -229c-36 0 -71 8 -75 9l10 121c13 -3 24 -5 40 -5c45 0 68 25 68 76v570h154v-565c0 -131 -68 -206 -197 -206zM72 629v143h158v-143h-158z" />
    <glyph glyph-name="k" unicode="k" horiz-adv-x="615" 
d="M430 0l-147 225l-56 -62v-163h-153v778h153v-448l184 212h173l-193 -214l214 -328h-175z" />
    <glyph glyph-name="l" unicode="l" horiz-adv-x="301" 
d="M74 0v778h154v-778h-154z" />
    <glyph glyph-name="m" unicode="m" horiz-adv-x="1005" 
d="M74 0v542h144v-88c29 51 81 100 174 100c84 0 146 -33 174 -108c35 63 89 108 180 108c133 0 190 -87 190 -209v-345h-154v317c0 92 -50 112 -93 112c-52 0 -107 -28 -107 -132v-297h-154v317c0 92 -50 112 -94 112c-53 0 -106 -28 -106 -132v-297h-154z" />
    <glyph glyph-name="n" unicode="n" horiz-adv-x="651" 
d="M74 0v542h144v-88c29 51 81 100 174 100c133 0 190 -87 190 -209v-345h-154v316c0 92 -50 113 -94 113c-53 0 -106 -28 -106 -133v-296h-154z" />
    <glyph glyph-name="o" unicode="o" horiz-adv-x="636" 
d="M319 103c83 0 120 67 120 168c0 100 -38 168 -121 168c-84 0 -121 -68 -121 -168c0 -101 38 -168 122 -168zM315 -15c-179 0 -273 121 -273 286c0 163 100 285 279 285c180 0 274 -122 274 -285s-101 -286 -280 -286z" />
    <glyph glyph-name="p" unicode="p" horiz-adv-x="662" 
d="M74 -222v764h142v-84c35 51 84 96 178 96c156 0 224 -128 224 -274c0 -179 -103 -293 -251 -293c-75 0 -121 36 -139 59v-268h-154zM340 100c75 0 121 59 121 172c0 117 -47 166 -115 166c-77 0 -124 -56 -124 -167c0 -120 47 -171 118 -171z" />
    <glyph glyph-name="q" unicode="q" horiz-adv-x="662" 
d="M319 100c84 0 121 72 121 170c0 99 -39 168 -118 168c-85 0 -122 -70 -122 -169s38 -169 119 -169zM433 -222v286c-29 -39 -71 -76 -157 -76c-148 0 -232 113 -232 279c0 161 84 287 248 287c77 0 126 -32 153 -75v63h143v-764h-155z" />
    <glyph glyph-name="r" unicode="r" horiz-adv-x="432" 
d="M74 0v542h144v-100h4c40 97 108 113 186 108l-7 -150c-12 2 -28 3 -49 3c-48 0 -83 -16 -103 -51c-15 -27 -21 -55 -21 -108v-244h-154z" />
    <glyph glyph-name="s" unicode="s" horiz-adv-x="569" 
d="M282 -16c-145 0 -224 59 -244 159l141 22c17 -47 53 -71 106 -71c60 0 92 19 92 54c0 28 -12 44 -68 55l-83 16c-113 22 -169 68 -169 165s88 172 227 172s213 -62 234 -150l-140 -23c-11 37 -39 64 -95 64c-55 0 -80 -21 -80 -49c0 -31 22 -45 71 -54l94 -18
c112 -21 157 -70 157 -158c0 -108 -79 -184 -243 -184z" />
    <glyph glyph-name="t" unicode="t" horiz-adv-x="415" 
d="M20 433v109h89l7 146h138v-146h115v-109h-112v-252c0 -56 25 -73 72 -73c20 0 35 2 43 2l7 -109c-13 -3 -51 -13 -114 -13c-121 0 -161 61 -161 181l1 264h-85z" />
    <glyph glyph-name="u" unicode="u" horiz-adv-x="641" 
d="M257 -13c-135 0 -188 91 -188 211v344h154v-317c0 -84 37 -114 88 -114c69 0 102 50 102 131v300h154v-542h-145v93c-21 -51 -72 -106 -165 -106z" />
    <glyph glyph-name="v" unicode="v" horiz-adv-x="573" 
d="M370 0h-167l-193 542h162l93 -288c9 -27 14 -52 18 -71c3 -11 5 -22 6 -32h5c2 10 4 21 7 32c4 19 9 43 18 70l93 289h151z" />
    <glyph glyph-name="w" unicode="w" horiz-adv-x="861" 
d="M519 0l-68 259c-7 25 -11 53 -14 74l-5 35h-6l-5 -35c-3 -21 -8 -49 -15 -74l-69 -259h-181l-142 542h152l67 -277c7 -29 12 -62 16 -87c2 -15 4 -30 5 -44h5c1 14 3 29 6 44c4 25 11 58 19 87l75 277h148l75 -277c8 -31 14 -66 19 -95l8 -50h5c1 17 3 34 6 51
c4 29 9 65 16 94l66 277h146l-144 -542h-185z" />
    <glyph glyph-name="x" unicode="x" horiz-adv-x="580" 
d="M392 0l-112 165l-110 -165h-155l192 275l-184 267h175l99 -149l99 149h157l-182 -261l194 -281h-173z" />
    <glyph glyph-name="y" unicode="y" horiz-adv-x="572" 
d="M134 -222l78 216l-202 548h161l99 -281c9 -27 14 -49 17 -68l4 -29h5c1 9 2 19 5 30c3 19 9 42 18 69l94 279h150l-280 -764h-149z" />
    <glyph glyph-name="z" unicode="z" horiz-adv-x="542" 
d="M54 421v121h439v-102l-267 -318h273v-122h-453v103l268 318h-260z" />
    <glyph glyph-name="braceleft" unicode="{" horiz-adv-x="345" 
d="M32 265v103h31c48 0 72 25 67 86l-13 175c-10 131 69 169 185 169h36v-85h-25c-64 0 -80 -21 -77 -84l8 -175c4 -79 -20 -115 -87 -134v-4c64 -15 90 -55 87 -130l-8 -180c-3 -61 13 -84 77 -84h25v-85h-38c-118 0 -193 38 -183 169l13 178c4 54 -19 81 -68 81h-30z" />
    <glyph glyph-name="bar" unicode="|" horiz-adv-x="284" 
d="M92 -163v961h99v-961h-99z" />
    <glyph glyph-name="braceright" unicode="}" horiz-adv-x="345" 
d="M309 370v-103h-31c-48 0 -72 -25 -67 -86l13 -175c10 -131 -69 -169 -185 -169h-36v85h25c64 0 80 21 77 84l-8 175c-4 79 20 115 87 134v4c-64 15 -90 55 -87 130l8 180c3 61 -13 84 -77 84h-25v85h38c118 0 193 -38 183 -169l-13 -178c-4 -54 19 -81 68 -81h30z" />
    <glyph glyph-name="exclamdown" unicode="&#xa1;" horiz-adv-x="326" 
d="M247 611v-163h-167v163h167zM215 367l21 -259v-275h-146v275l22 259h103z" />
    <glyph glyph-name="cent" unicode="&#xa2;" horiz-adv-x="596" 
d="M194 271c0 -108 32 -155 85 -170v339c-53 -15 -85 -65 -85 -169zM426 183l140 -22c-24 -90 -91 -164 -221 -175v-128h-66v128c-163 13 -237 125 -237 281c0 147 80 268 237 287v132h66v-131c131 -8 203 -92 216 -166l-143 -25c-15 41 -33 69 -73 78v-342
c41 8 65 36 81 83z" />
    <glyph glyph-name="sterling" unicode="&#xa3;" horiz-adv-x="660" 
d="M601 131v-131h-547v105c88 8 131 64 110 188l-2 12h-91v106h71l-14 71c-32 163 61 287 241 287c137 0 219 -72 235 -204l-137 -25c-15 69 -41 105 -104 105c-73 0 -106 -46 -88 -149l15 -85h178v-106h-160c16 -89 -17 -141 -65 -170v-4h358z" />
    <glyph glyph-name="yen" unicode="&#xa5;" horiz-adv-x="706" 
d="M639 108h-205v-108h-152v108h-216v92h216v88h-216v92h197l-217 375h166l150 -278l141 278h158l-213 -375h191v-92h-205v-88h205v-92z" />
    <glyph glyph-name="section" unicode="&#xa7;" horiz-adv-x="594" 
d="M356 324l41 -10c12 11 18 25 18 42c0 35 -22 53 -73 64l-97 21c-17 4 -34 8 -45 12c-12 -13 -18 -28 -18 -43c0 -39 29 -54 74 -64zM477 270v-3c37 -31 48 -68 48 -108c0 -103 -80 -175 -235 -175c-152 0 -220 71 -233 160l132 18c15 -49 52 -72 105 -72
c60 0 90 19 90 56c0 27 -14 46 -55 54l-133 27c-82 17 -143 65 -143 147c0 57 22 92 74 123v2c-32 28 -43 63 -43 108c0 94 83 165 217 165c146 0 209 -68 225 -153l-130 -18c-8 30 -35 70 -97 70c-53 0 -79 -21 -79 -52c0 -32 17 -46 62 -56l128 -27
c80 -17 137 -63 137 -143c0 -56 -21 -92 -70 -123z" />
    <glyph glyph-name="currency" unicode="&#xa4;" horiz-adv-x="611" 
d="M124 337c0 29 6 57 19 82l-84 85l76 79l84 -86c25 13 54 20 85 20s59 -7 84 -20l90 92l76 -79l-90 -92c12 -24 20 -52 20 -81s-8 -57 -21 -81l87 -86l-78 -80l-86 86c-25 -11 -51 -18 -82 -18s-59 7 -84 18l-86 -87l-77 77l88 87c-14 25 -21 53 -21 84zM216 337
c0 -55 37 -91 88 -91s89 38 89 91s-38 91 -89 91s-88 -36 -88 -91z" />
    <glyph glyph-name="quotesingle" unicode="'" horiz-adv-x="277" 
d="M105 425l-50 330h167l-50 -330h-67z" />
    <glyph glyph-name="quotedblleft" unicode="&#x201c;" horiz-adv-x="490" 
d="M199 788l21 -59c-52 -23 -87 -52 -87 -105h77v-163h-167v123c0 91 36 164 156 204zM436 788l21 -59c-52 -23 -87 -52 -87 -105h77v-163h-167v123c0 91 36 164 156 204z" />
    <glyph glyph-name="guillemotleft" unicode="&#xab;" horiz-adv-x="550" 
d="M158 468h125l-110 -206l110 -209h-127l-117 208zM372 468h125l-109 -206l109 -209h-127l-117 208z" />
    <glyph glyph-name="guilsinglleft" unicode="&#x2039;" horiz-adv-x="336" 
d="M158 468h125l-110 -206l110 -209h-127l-117 208z" />
    <glyph glyph-name="guilsinglright" unicode="&#x203a;" horiz-adv-x="336" 
d="M179 53h-126l110 206l-110 209h128l116 -208z" />
    <glyph glyph-name="endash" unicode="&#x2013;" horiz-adv-x="530" 
d="M30 246v107h470v-107h-470z" />
    <glyph glyph-name="dagger" unicode="&#x2020;" horiz-adv-x="325" 
d="M22 569v71h102v115h78v-115h102v-71h-102v-246h-78v246h-102z" />
    <glyph glyph-name="bullet" unicode="&#x2022;" horiz-adv-x="390" 
d="M61 295c0 75 59 134 134 134c74 0 133 -59 133 -134s-59 -135 -133 -135c-75 0 -134 60 -134 135z" />
    <glyph glyph-name="quotedblright" unicode="&#x201d;" horiz-adv-x="490" 
d="M54 427l-20 60c52 23 87 52 87 105h-77v163h166v-124c0 -91 -36 -164 -156 -204zM291 427l-20 60c52 23 87 52 87 105h-77v163h166v-124c0 -91 -36 -164 -156 -204z" />
    <glyph glyph-name="guillemotright" unicode="&#xbb;" horiz-adv-x="550" 
d="M179 53h-126l110 206l-110 209h128l116 -208zM393 53h-126l110 206l-110 209h128l116 -208z" />
    <glyph glyph-name="perthousand" unicode="&#x2030;" horiz-adv-x="1192" 
d="M611 285c-37 0 -59 -30 -59 -111c0 -80 21 -111 60 -111c35 0 58 28 58 111c0 80 -22 111 -59 111zM991 285c-36 0 -58 -30 -58 -111c0 -80 22 -111 59 -111c36 0 58 28 58 111c0 80 -22 111 -59 111zM448 174c0 120 74 188 167 188c100 0 161 -61 161 -188
c0 -123 -70 -188 -165 -188c-101 0 -163 65 -163 188zM828 174c0 120 74 188 167 188c100 0 161 -61 161 -188c0 -123 -70 -188 -165 -188c-101 0 -163 65 -163 188zM198 693c-37 0 -59 -28 -59 -111c0 -80 21 -110 60 -110c36 0 58 27 58 110c0 80 -22 111 -59 111zM98 -14
l510 784h102l-509 -784h-103zM35 582c0 120 74 188 167 188c100 0 161 -61 161 -188c0 -123 -70 -188 -165 -188c-101 0 -163 65 -163 188z" />
    <glyph glyph-name="questiondown" unicode="&#xbf;" horiz-adv-x="568" 
d="M372 611v-163h-167v163h167zM356 367l1 -46c2 -77 -24 -104 -93 -154c-67 -48 -94 -73 -94 -126c0 -52 39 -87 107 -87c79 0 115 42 130 118l143 -23c-13 -114 -103 -223 -276 -223c-167 0 -258 80 -258 209c0 99 48 144 125 200c62 46 79 58 79 102v30h136z" />
    <glyph glyph-name="grave" unicode="`" 
d="M287 778l91 -167h-118l-135 167h162z" />
    <glyph glyph-name="acute" unicode="&#xb4;" 
d="M122 611l97 167h161l-140 -167h-118z" />
    <glyph glyph-name="circumflex" unicode="&#x2c6;" horiz-adv-x="494" 
d="M87 602v109l160 73l160 -73v-110l-160 69z" />
    <glyph glyph-name="tilde" unicode="&#x2dc;" 
d="M139 616h-86c3 96 47 148 123 148c61 0 109 -41 150 -41c29 0 44 15 44 44h88c-3 -92 -40 -149 -121 -149c-60 0 -115 43 -153 43c-28 0 -44 -13 -45 -45z" />
    <glyph glyph-name="dieresis" unicode="&#xa8;" 
d="M67 631v141h139v-141h-139zM294 631v141h139v-141h-139z" />
    <glyph glyph-name="emdash" unicode="&#x2014;" horiz-adv-x="930" 
d="M30 246v107h870v-107h-870z" />
    <glyph glyph-name="AE" unicode="&#xc6;" horiz-adv-x="989" 
d="M460 0v175h-216l-71 -175h-158l314 755h596v-136h-309v-176h264v-128h-264v-179h325v-136h-481zM357 452l-61 -151h164v318h-46c-3 -13 -8 -29 -13 -46c-9 -29 -23 -70 -44 -121z" />
    <glyph glyph-name="OE" unicode="&#x152;" horiz-adv-x="1158" 
d="M600 0v73c-53 -63 -125 -87 -209 -87c-205 0 -342 150 -342 391c0 239 135 390 352 390c83 0 149 -27 198 -80v68h495v-136h-343v-176h298v-128h-298v-179h358v-136h-509zM407 115c114 0 192 85 192 262c0 180 -78 263 -192 263c-113 0 -192 -88 -192 -264
s78 -261 192 -261z" />
    <glyph glyph-name="ae" unicode="&#xe6;" horiz-adv-x="952" 
d="M270 92c78 0 126 59 126 133v7h-20c-11 0 -26 1 -37 1c-107 0 -144 -25 -144 -72c0 -41 31 -69 75 -69zM652 446c-69 0 -109 -49 -116 -117h228c-4 71 -44 117 -112 117zM42 151c0 123 101 174 270 174h82v23c0 56 -22 91 -93 91c-60 0 -87 -30 -96 -67l-143 30
c16 72 87 155 243 155c88 0 141 -26 176 -73c39 43 97 72 180 72c176 0 261 -127 258 -327h-383c1 -76 53 -127 126 -127c55 0 88 21 116 64l125 -40c-35 -80 -116 -141 -245 -141c-103 0 -175 41 -215 105c-45 -68 -110 -105 -211 -105c-108 0 -190 70 -190 166z" />
    <glyph glyph-name="oe" unicode="&#x153;" horiz-adv-x="995" 
d="M319 103c83 0 119 67 119 168c0 100 -37 167 -120 167c-84 0 -120 -67 -120 -167c0 -101 37 -168 121 -168zM697 446c-71 0 -109 -52 -114 -120h225c-3 72 -40 120 -111 120zM699 -15c-95 0 -154 31 -189 87h-2c-40 -55 -104 -87 -193 -87c-179 0 -273 121 -273 286
c0 163 97 285 279 285c84 0 150 -32 190 -96h2c43 63 101 96 189 96c184 0 266 -130 258 -326h-378c3 -76 47 -128 119 -128c59 0 87 22 110 62l134 -34c-35 -85 -113 -145 -246 -145z" />
    <glyph glyph-name="trademark" unicode="&#x2122;" horiz-adv-x="645" 
d="M283 456v299h95l50 -140c7 -20 10 -34 13 -43c1 -5 2 -10 2 -13h3c0 3 1 8 2 13c3 9 5 23 12 42l49 141h93v-299h-66v209h-3l-3 -17c-2 -12 -6 -27 -12 -44l-48 -148h-56l-51 149c-6 19 -10 33 -12 43l-3 17h-3v-209h-62zM98 456v238h-81v61h232v-61h-81v-238h-70z" />
    <glyph glyph-name="registered" unicode="&#xae;" horiz-adv-x="465" 
d="M147 451v225h88c52 0 88 -22 88 -69c0 -35 -21 -52 -45 -61l51 -95h-57l-44 83h-29v-83h-52zM199 574h30c27 0 40 10 40 30c0 19 -11 32 -38 32h-32v-62zM233 735c-95 0 -172 -79 -172 -174s77 -174 172 -174s171 79 171 174s-76 174 -171 174zM233 355
c-116 0 -207 91 -207 206s91 206 207 206c115 0 206 -91 206 -206s-91 -206 -206 -206z" />
    <glyph glyph-name="copyright" unicode="&#xa9;" horiz-adv-x="892" 
d="M447 149c-145 0 -214 93 -214 230c0 131 75 236 220 236c115 0 177 -73 190 -137l-117 -20c-13 37 -37 61 -78 61c-57 0 -94 -47 -94 -136c0 -95 36 -138 95 -138c45 0 71 30 83 66l114 -18c-21 -79 -80 -144 -199 -144zM118 377c0 -195 145 -334 328 -334
c182 0 328 139 328 334s-146 335 -328 335c-183 0 -328 -140 -328 -335zM54 377c0 227 175 393 392 393c219 0 393 -166 393 -393c0 -226 -176 -392 -393 -392c-219 0 -392 166 -392 392z" />
    <glyph glyph-name="Agrave" unicode="&#xc0;" horiz-adv-x="763" 
d="M581 0l-59 175h-288l-59 -175h-155l265 755h192l266 -755h-162zM342 495l-64 -190h200l-64 190c-10 29 -17 56 -23 79l-9 36h-9l-9 -35c-6 -21 -12 -51 -22 -80zM358 947l89 -142h-122l-134 142h167z" />
    <glyph glyph-name="Ccedilla" unicode="&#xc7;" horiz-adv-x="766" 
d="M402 -232c-52 0 -86 12 -119 43l45 44c21 -16 42 -26 67 -26c27 0 40 10 40 31s-14 32 -34 32c-15 0 -25 -3 -37 -10l-52 29l38 76c-192 23 -301 160 -301 385c0 236 142 398 358 398c183 0 289 -99 318 -222l-153 -31c-28 73 -81 120 -166 120
c-113 0 -190 -87 -190 -258c0 -179 82 -263 190 -263c104 0 153 66 171 134l158 -31c-30 -118 -125 -235 -329 -235h-2l-19 -36l3 -2c12 3 24 5 44 5c51 0 91 -31 91 -87c0 -60 -48 -96 -121 -96z" />
    <glyph glyph-name="Eacute" unicode="&#xc9;" horiz-adv-x="650" 
d="M277 805l89 142h167l-134 -142h-122zM82 0v755h504v-136h-346v-174h301v-133h-301v-176h362v-136h-520z" />
    <glyph glyph-name="Ecircumflex" unicode="&#xca;" horiz-adv-x="650" 
d="M184 797v105l160 60l160 -60v-107l-161 57zM82 0v755h504v-136h-346v-174h301v-133h-301v-176h362v-136h-520z" />
    <glyph glyph-name="Edieresis" unicode="&#xcb;" horiz-adv-x="650" 
d="M82 0v755h504v-136h-346v-174h301v-133h-301v-176h362v-136h-520zM156 811v140h140v-140h-140zM386 811v140h140v-140h-140z" />
    <glyph glyph-name="Egrave" unicode="&#xc8;" horiz-adv-x="650" 
d="M326 947l89 -142h-122l-134 142h167zM82 0v755h504v-136h-346v-174h301v-133h-301v-176h362v-136h-520z" />
    <glyph glyph-name="Idieresis" unicode="&#xcf;" horiz-adv-x="323" 
d="M82 0v755h159v-755h-159zM-1 811v140h136v-140h-136zM188 811v140h136v-140h-136z" />
    <glyph glyph-name="Ntilde" unicode="&#xd1;" horiz-adv-x="795" 
d="M306 805h-86c3 96 47 148 123 148c61 0 109 -41 150 -41c27 0 44 16 44 44h88c-3 -92 -40 -149 -121 -149c-60 0 -115 43 -153 43c-27 0 -44 -13 -45 -45zM82 0v755h176l266 -435c11 -19 20 -39 27 -54l11 -25h4v514h147v-755h-168l-272 442c-12 20 -23 40 -29 55l-10 25
h-4v-522h-148z" />
    <glyph glyph-name="Ocircumflex" unicode="&#xd4;" horiz-adv-x="815" 
d="M247 797v105l160 60l160 -60v-107l-161 57zM407 117c113 0 192 83 192 260c0 179 -79 260 -192 260s-191 -83 -191 -260s78 -260 191 -260zM406 -16c-224 0 -357 152 -357 393c0 239 139 393 359 393c223 0 358 -151 358 -393c0 -240 -139 -393 -360 -393z" />
    <glyph glyph-name="Odieresis" unicode="&#xd6;" horiz-adv-x="815" 
d="M222 811v140h140v-140h-140zM452 811v140h140v-140h-140zM407 117c113 0 192 83 192 260c0 179 -79 260 -192 260s-191 -83 -191 -260s78 -260 191 -260zM406 -16c-224 0 -357 152 -357 393c0 239 139 393 359 393c223 0 358 -151 358 -393c0 -240 -139 -393 -360 -393z
" />
    <glyph glyph-name="agrave" unicode="&#xe0;" horiz-adv-x="611" 
d="M224 -13c-99 0 -182 59 -182 164c0 154 153 177 275 177c26 0 51 -2 77 -2c0 70 -11 113 -93 113c-47 0 -85 -19 -96 -67l-143 30c25 111 140 155 243 155c153 0 237 -65 237 -223c0 -111 -3 -223 5 -334h-144l-4 70c-42 -62 -101 -83 -175 -83zM271 94
c78 0 124 55 124 131v10c-23 0 -46 1 -69 1c-53 0 -132 -6 -132 -76c0 -44 37 -66 77 -66zM294 778l91 -167h-118l-135 167h162z" />
    <glyph glyph-name="ccedilla" unicode="&#xe7;" horiz-adv-x="594" 
d="M314 -232c-52 0 -86 12 -119 43l45 44c21 -16 42 -26 67 -26c27 0 40 10 40 31s-14 32 -34 32c-15 0 -25 -3 -37 -10l-52 29l39 77c-151 19 -221 127 -221 279c0 160 94 289 279 289c145 0 227 -87 240 -171l-149 -25c-13 43 -37 78 -98 78c-72 0 -117 -58 -117 -167
c0 -115 46 -168 118 -168c59 0 90 37 105 84l146 -23c-26 -100 -103 -179 -248 -179l-21 -37l3 -2c12 3 24 5 44 5c51 0 91 -31 91 -87c0 -60 -48 -96 -121 -96z" />
    <glyph glyph-name="eacute" unicode="&#xe9;" horiz-adv-x="609" 
d="M248 611l97 167h161l-140 -167h-118zM310 446c-71 0 -110 -49 -117 -117h228c-4 71 -43 117 -111 117zM314 -15c-160 0 -272 112 -272 285c0 164 101 286 274 286c179 0 264 -126 261 -326h-385c5 -76 55 -128 127 -128c55 0 88 21 116 64l126 -40
c-35 -80 -116 -141 -247 -141z" />
    <glyph glyph-name="ecircumflex" unicode="&#xea;" horiz-adv-x="609" 
d="M157 602v109l160 73l160 -73v-110l-160 69zM310 446c-71 0 -110 -49 -117 -117h228c-4 71 -43 117 -111 117zM314 -15c-160 0 -272 112 -272 285c0 164 101 286 274 286c179 0 264 -126 261 -326h-385c5 -76 55 -128 127 -128c55 0 88 21 116 64l126 -40
c-35 -80 -116 -141 -247 -141z" />
    <glyph glyph-name="edieresis" unicode="&#xeb;" horiz-adv-x="609" 
d="M134 631v141h139v-141h-139zM361 631v141h139v-141h-139zM310 446c-71 0 -110 -49 -117 -117h228c-4 71 -43 117 -111 117zM314 -15c-160 0 -272 112 -272 285c0 164 101 286 274 286c179 0 264 -126 261 -326h-385c5 -76 55 -128 127 -128c55 0 88 21 116 64l126 -40
c-35 -80 -116 -141 -247 -141z" />
    <glyph glyph-name="egrave" unicode="&#xe8;" horiz-adv-x="609" 
d="M310 446c-71 0 -110 -49 -117 -117h228c-4 71 -43 117 -111 117zM314 -15c-160 0 -272 112 -272 285c0 164 101 286 274 286c179 0 264 -126 261 -326h-385c5 -76 55 -128 127 -128c55 0 88 21 116 64l126 -40c-35 -80 -116 -141 -247 -141zM298 778l91 -167h-118
l-135 167h162z" />
    <glyph glyph-name="idieresis" unicode="&#xef;" horiz-adv-x="301" 
d="M74 0v542h154v-542h-154zM-12 631v141h140v-141h-140zM171 631v141h139v-141h-139z" />
    <glyph glyph-name="ntilde" unicode="&#xf1;" horiz-adv-x="651" 
d="M74 0v542h144v-88c29 51 81 100 174 100c133 0 190 -87 190 -209v-345h-154v316c0 92 -50 113 -94 113c-53 0 -106 -28 -106 -133v-296h-154zM228 616h-86c3 96 47 148 123 148c61 0 109 -41 150 -41c29 0 44 15 44 44h88c-3 -92 -40 -149 -121 -149
c-60 0 -115 43 -153 43c-28 0 -44 -13 -45 -45z" />
    <glyph glyph-name="ocircumflex" unicode="&#xf4;" horiz-adv-x="636" 
d="M159 602v109l160 73l160 -73v-110l-160 69zM319 103c83 0 120 67 120 168c0 100 -38 168 -121 168c-84 0 -121 -68 -121 -168c0 -101 38 -168 122 -168zM315 -15c-179 0 -273 121 -273 286c0 163 100 285 279 285c180 0 274 -122 274 -285s-101 -286 -280 -286z" />
    <glyph glyph-name="odieresis" unicode="&#xf6;" horiz-adv-x="636" 
d="M135 631v141h139v-141h-139zM362 631v141h139v-141h-139zM319 103c83 0 120 67 120 168c0 100 -38 168 -121 168c-84 0 -121 -68 -121 -168c0 -101 38 -168 122 -168zM315 -15c-179 0 -273 121 -273 286c0 163 100 285 279 285c180 0 274 -122 274 -285
s-101 -286 -280 -286z" />
    <glyph glyph-name="Euro" unicode="&#x20ac;" horiz-adv-x="719" 
d="M546 218l138 -28c-31 -127 -116 -206 -273 -206c-160 0 -257 92 -288 259h-90v92h80c-1 12 -1 24 -1 36c0 15 0 30 1 45h-80v92h92c36 167 139 260 291 260c153 0 237 -78 265 -198l-143 -35c-21 67 -54 110 -125 110c-69 0 -116 -34 -136 -137h195v-92h-204
c-1 -11 -1 -23 -1 -35c0 -16 0 -31 1 -46h204v-92h-193c21 -100 70 -136 138 -136s106 38 129 111z" />
    <glyph glyph-name="uni00A0" unicode="&#xa0;" horiz-adv-x="204" 
 />
    <glyph glyph-name="NULL" horiz-adv-x="0" 
 />
    <glyph glyph-name="CR" horiz-adv-x="333" 
 />
    <glyph glyph-name="glyph147" 
d="M289 947l89 -142h-122l-134 142h167z" />
    <glyph glyph-name="glyph148" 
d="M65 811v140h140v-140h-140zM295 811v140h140v-140h-140z" />
    <glyph glyph-name="glyph149" 
d="M124 805l89 142h167l-134 -142h-122z" />
    <glyph glyph-name="glyph150" horiz-adv-x="494" 
d="M87 797v105l160 60l160 -60v-107l-161 57z" />
    <glyph glyph-name="glyph151" 
d="M139 805h-86c3 96 47 148 123 148c61 0 109 -41 150 -41c27 0 44 16 44 44h88c-3 -92 -40 -149 -121 -149c-60 0 -115 43 -153 43c-27 0 -44 -13 -45 -45z" />
    </font>
</defs>
</svg>
