<?xml version="1.0" encoding="utf-8"?>
<!-- Generator: Adobe Illustrator 16.0.0, SVG Export Plug-In . SVG Version: 6.00 Build 0)  -->
<!DOCTYPE svg PUBLIC "-//W3C//DTD SVG 1.1//EN" "http://www.w3.org/Graphics/SVG/1.1/DTD/svg11.dtd">
<svg version="1.1" id="Layer_1" xmlns="http://www.w3.org/2000/svg" xmlns:xlink="http://www.w3.org/1999/xlink" x="0px" y="0px"
	 width="790px" height="172.222px" viewBox="0 0 790 172.222" enable-background="new 0 0 790 172.222" xml:space="preserve">
<g>
	<g id="AATC_x5F_stacked_x5F_primary_x5F_full-color">
		<g>
			<path fill="#138E27" d="M26.543,84.519l-5.986-5.407l-2.991-0.253c0,0-1.118,2.694-4.168,2.617
				c-3.054-0.073-4.02-2.392-4.02-2.392l-4.101,0.365l-5.447,5.679c0,0,0.873,0,1.613,1.488c1.156,2.328,2.966,2.026,2.966,2.026
				l0.724-1.104l1.227,6.445l-0.07,9.646c0,0,5.546-0.113,7.739-0.674c2.908-0.747,7.19-0.202,7.19-0.202l-0.526-10.867l0.526-4.727
				l1.895,1.887c0,0,0.936-2.063,2.219-2.837C26.345,85.6,26.543,84.519,26.543,84.519"/>
			<path fill="#FFA400" d="M97.172,11.09l-5.988-5.409l-2.988-0.25c0,0-1.117,2.693-4.167,2.619
				c-3.058-0.074-4.024-2.396-4.024-2.396l-4.095,0.369L70.458,11.7c0,0,0.875,0,1.617,1.485c1.151,2.33,2.961,2.031,2.961,2.031
				l0.721-1.106l1.226,6.44l-0.067,9.652c0,0,5.547-0.111,7.743-0.672c2.902-0.751,7.187-0.205,7.187-0.205l-0.526-10.866
				l0.526-4.726l1.894,1.886c0,0,0.939-2.062,2.222-2.838C96.973,12.174,97.172,11.09,97.172,11.09"/>
			<path fill="#115E1C" d="M67.984,52.189l-5.994-5.408l-2.984-0.255c0,0-1.119,2.694-4.173,2.618
				c-3.051-0.075-4.019-2.395-4.019-2.395l-4.1,0.369l-5.451,5.675c0,0,0.878,0,1.612,1.488c1.16,2.327,2.966,2.028,2.966,2.028
				l0.727-1.107l1.224,6.448l-0.069,9.645c0,0,5.548-0.111,7.739-0.671c2.904-0.749,7.193-0.203,7.193-0.203L62.13,59.553
				l0.526-4.724l1.896,1.887c0,0,0.935-2.062,2.218-2.84C67.779,53.267,67.984,52.189,67.984,52.189"/>
			<path fill="#138E27" d="M157.621,64.146l-5.991-5.408l-2.986-0.256c0,0-1.117,2.696-4.168,2.62
				c-3.057-0.075-4.024-2.393-4.024-2.393l-4.095,0.367l-5.453,5.677c0,0,0.877,0,1.616,1.487c1.159,2.326,2.962,2.027,2.962,2.027
				l0.728-1.104l1.222,6.446l-0.068,9.647c0,0,5.549-0.112,7.742-0.678c2.905-0.748,7.187-0.202,7.187-0.202l-0.521-10.867
				l0.521-4.725l1.899,1.888c0,0,0.934-2.062,2.22-2.837C157.419,65.224,157.621,64.146,157.621,64.146"/>
			<path fill="#138E27" d="M106.601,42.364l-5.282-6.107l-2.932-0.616c0,0-1.44,2.534-4.462,2.083
				c-3.019-0.45-3.696-2.871-3.696-2.871l-4.111-0.14l-6.103,4.959c0,0,0.869,0.111,1.42,1.677c0.866,2.449,2.694,2.377,2.694,2.377
				l0.857-1.01l0.425,6.548l-1.244,9.572c0,0,5.516,0.568,7.764,0.28c2.972-0.382,7.155,0.688,7.155,0.688l0.807-10.852l1.1-4.624
				l1.652,2.105c0,0,1.183-1.933,2.55-2.544C106.273,43.414,106.601,42.364,106.601,42.364"/>
			<path fill="#FFA400" d="M131.67,67.453l-4.804-6.492l-2.878-0.841c0,0-1.627,2.417-4.607,1.739
				c-2.978-0.68-3.464-3.146-3.464-3.146l-4.094-0.455l-6.463,4.479c0,0,0.861,0.174,1.295,1.78
				c0.673,2.512,2.502,2.578,2.502,2.578l0.934-0.942l-0.075,6.563l-1.97,9.441c0,0,5.462,0.995,7.722,0.876
				c2.995-0.154,7.086,1.234,7.086,1.234l1.63-10.754l1.445-4.531l1.487,2.227c0,0,1.324-1.84,2.734-2.338
				C131.261,68.473,131.67,67.453,131.67,67.453"/>
		</g>
		<path fill="#724D17" d="M13.666,80.562c4.162,2.409,8.908,1.827,13.044-0.394c4.833-2.595,9.176-5.947,14.49-7.569
			c5.086-1.559,10.207-1.633,15.473-1.331c0.393,0.019,0.776,0.041,1.169,0.058c-6.631,1.261-13.05,4.296-11.865,11.875
			c0.612,3.95,3.208,7.193,7.474,6.138c3.781-0.931,4.179-7.196-0.273-7.021c-0.324,0.014-0.608,0.161-0.801,0.398
			c-0.901-0.022-1.504,1.362-0.539,1.954c0.239,0.145,0.472,0.25,0.731,0.361c0.356,0.147,0.741-0.054,1.009-0.268
			c0.109-0.088,0.188-0.179,0.254-0.271c1.254,0.486-0.148,2.801-1.543,2.994c-3.044,0.414-4.359-3.127-4.361-5.632
			c-0.01-2.695,1.078-4.762,3.449-6.141c4.768-2.769,11.016-3.297,16.439-3.238c2.208,0.025,4.386,0.266,6.516,0.685
			c0.12,0.041,0.241,0.076,0.364,0.116c0.405,0.29,0.817,0.566,1.244,0.818c-2.669-0.114-6.278,0.025-7.798,2.383
			c-2.091,3.258,1.507,6.705,4.922,5.833c1.254-0.318,2.683-1.034,2.616-2.541c-0.026-0.595-0.342-0.961-0.769-1.144
			c-0.194-0.224-0.47-0.382-0.792-0.398c-0.103-0.004-0.205-0.013-0.312-0.018c-0.621-0.031-0.945,0.405-0.988,0.882
			c-0.431,0.687-0.025,1.768,0.805,1.644c-1.529,0.249-5.474-1.478-3.643-3.256c0.515-0.489,1.128-0.793,1.816-0.962
			c1.654-0.405,3.38-0.427,5.068-0.297c1.888,0.151,3.843,0.4,5.736,0.846c1.008,0.375,2.016,0.741,3.021,1.126
			c0.527,0.233,1.055,0.459,1.589,0.674c1.03,0.478,2.03,1.018,3.021,1.58c2.58,1.997,4.918,4.311,6.947,6.902
			c-3.398-2.687-7.592-3.981-11.918-2.613c-5.09,1.606-9.273,5.164-13.219,8.645c-3.68,3.246-7.829,7.979-13.098,8.187
			c-2.123,0.088-5.167-0.553-4.42-3.418c0.383-1.473,1.08-3.056,2.262-4.058c0.796-0.917,1.68-0.921,2.647-0.038
			c-0.08,0.021-0.161,0.054-0.243,0.1c-3.29,1.869,0.967,4.457,2.508,1.949c1.084-1.763-0.344-3.619-1.79-4.589
			c-1.961-1.318-4.305,0.673-5.466,2.088c-2.052,2.486-3.461,7.685,0.387,9.346c3.657,1.571,8.061,0.402,11.195-1.838
			c6.925-4.944,17.021-18.362,26.733-14.132c-5.471-0.834-12.579,0.9-13.993,7.024c-0.661,2.856-0.082,5.487,2.072,7.533
			c1.52,1.438,4.592,2.088,6.296,0.633c1.85-1.58,1.931-4.08,0.258-5.837c-1.49-1.566-2.654,0.47-2.77,1.799
			c-0.038,0.446,0.341,0.909,0.763,1.005c0.245,0.058,0.455,0.088,0.642,0.096c0.039,0.237,0.125,0.513,0.281,0.826
			c-0.67,0.742-1.45,0.999-2.332,0.757c-0.812-0.238-1.618-0.563-2.183-1.239c-1.334-1.593-1.618-3.706-0.833-5.639
			c1.531-3.759,5.703-5.365,9.564-5.139c2.427,0.142,4.677,0.867,6.708,1.998c-0.366,0.181-0.734,0.39-1.109,0.652
			c-1.799,1.269-2.695,5.346-0.134,6.341c0.646,0.254,1.457,0.091,1.992-0.287c0.439-0.112,0.755-0.574,0.767-1.014
			c0.007-0.166,0.01-0.332,0.014-0.499c0.009-0.352-0.199-0.731-0.515-0.903c-0.512-0.271-0.925-0.207-1.481-0.247
			c-0.041-0.211-0.094-0.419-0.168-0.624c0.403-0.929,1.066-1.496,1.998-1.696c0.157-0.032,0.316-0.048,0.474-0.066
			c5.098,7.371,4.73,29.024,4.563,37.53c-0.15,7.733-1.066,15.498-3.264,22.93c-1.088,3.667-2.211,7.968-4.431,11.129
			c-1.385,1.977-3.382,3.31-5.285,4.747c-0.947-0.898-2.372,0.552-1.436,1.494c0.322,0.318,0.388,0.581,0.822,0.778
			c0.471,0.214,0.858,0.157,1.258-0.161c0.943-0.757,1.955-1.444,2.911-2.188c-0.082,0.174-0.166,0.342-0.25,0.515
			c-0.585,1.199,1.202,2.257,1.792,1.049c0.113-0.232,0.227-0.462,0.34-0.694c0.003,0.014,0.007,0.025,0.013,0.036
			c0.258,0.666,0.409,0.952,0.879,1.487c0.435,0.498,1.323,0.359,1.626-0.208c0.192-0.367,0.387-0.729,0.581-1.093
			c0.167,0.214,0.42,0.365,0.773,0.375c0.596,0.017,1.146-0.14,1.667-0.398c0.304,0.078,0.63,0.005,0.902-0.318
			c0.305-0.364,0.608-0.733,0.9-1.105c0.087-0.09,0.171-0.181,0.253-0.277c0.132,0.031,0.276,0.033,0.433,0.01
			c0.117-0.021,0.231-0.056,0.341-0.095c-0.148,0.974-0.337,1.949-0.593,2.918c-0.306,1.132,1.313,1.843,1.895,0.798
			c1.043-1.875,1.691-3.821,2.082-5.828c0.592,1.395,1.336,2.734,2.253,3.983c0.651,0.885,2.297,0.398,1.894-0.803
			c-0.066-0.208-0.131-0.412-0.205-0.617c0.499,0.721,1.064,1.406,1.746,2.037c0.974,0.914,2.449-0.556,1.462-1.467
			c-2.482-2.323-3.402-5.474-4.718-8.491c0.173-0.368,0.358-0.731,0.521-1.104c0.952,3.547,2.542,6.799,5.185,9.425
			c0.55,0.546,1.27,0.281,1.599-0.216c0.504,0.498,1.059,0.967,1.674,1.409c0.825,0.583,2.043-0.6,1.42-1.428
			c-2.022-2.681-3.68-5.497-5.02-8.405c-0.456-2.318-0.553-4.747-0.524-6.977c0.052-4.968,0.746-9.906,0.785-14.871
			c0.002-0.243-0.071-0.443-0.183-0.6c0.072-1.247,0.102-2.501,0.075-3.763c-0.015-0.709-0.05-1.426-0.091-2.139
			c0.635-3.715,1.229-18.12,1.911-21.83c0.827-4.516,1.619-9.041,2.539-13.539c0.731-0.545,1.625-0.855,2.742-0.799
			c1.059,0.053,2.771,0.342,3.051,1.649c0.143,0.659-0.183,1.299-0.577,1.642c-0.066-0.263-0.129-0.521-0.191-0.778
			c-0.086-0.328-0.388-0.663-0.727-0.723c-0.558-0.107-0.881-0.107-1.439,0c-0.444,0.08-0.771,0.567-0.761,1
			c0.059,2.833,3.682,4.071,5.274,1.5c1.892-3.07-0.958-6.191-4.096-6.345c-1.015-0.046-1.914,0.081-2.722,0.345
			c0.849-3.457,2.055-6.837,3.276-10.179c1.021-2.784,2.677-6.728,5.933-7.454c2.227-0.497,5.528,0.151,6.188,2.809
			c0.093,0.356,0.543,3.204-0.64,2.764c-0.149-0.052-0.236-0.1-0.291-0.134c0.025-0.045,0.061-0.084,0.086-0.134
			c0.243-0.444,0.133-1.001-0.225-1.318c-0.204-0.341-0.469-0.565-0.857-0.745c-0.768-0.362-1.456,0.088-1.559,0.898
			c-0.067,0.538,0.2,1.11,0.208,1.305c0.021,0.434,0.288,0.78,0.637,0.941c0.231,0.424,0.552,0.786,0.918,0.986
			c2.827,1.534,4.467-2.116,3.891-4.432c-0.542-2.195-1.985-3.729-3.795-4.533c2.915-0.246,5.954,0.188,8.5,1.203
			c1.908,0.763,4.304,1.966,5.174,3.978c0.482,1.112,0.58,2.948-0.481,3.832c-0.499,0.417-1.372,0.945-2.072,0.673
			c-0.678-0.687-0.97-1.3-0.874-1.845c0.759,0.573,2.207,0.398,2.749-0.303c1.045-1.334-0.036-2.494-1.417-2.721
			c-0.092-0.024-0.184-0.033-0.274-0.033c-0.88-0.064-1.822,0.253-2.395,1.133c-2.017,3.117,0.462,6.776,4.064,5.62
			c3.538-1.137,3.742-5.67,1.929-8.316c-2.287-3.322-6.926-4.715-10.714-5.094c-4.932-0.491-10.587,0.052-14.122,3.999
			c-3.727,4.168-6.371,9.241-8.178,14.521c-0.478,1.385-0.867,2.767-1.205,4.145c0.573-6.425,3.065-12.76,5.677-18.617
			c0.082-0.059,0.158-0.13,0.229-0.223c0.522-0.707,1.08-1.378,1.652-2.039c3.354-3.101,7.282-5.674,11.632-7.03
			c1.367-0.285,2.76-0.459,4.175-0.552c0.25-0.009,0.493-0.023,0.748-0.026c1.906-0.032,3.823-0.021,5.723,0.061
			c1.065,0.188,2.126,0.414,3.19,0.647c0.917,0.337,1.941,0.871,2.078,1.85c0.159,1.146-0.626,2.051-1.728,2.292
			c-0.437,0.185-0.8,0.189-1.09,0.02c0.113,0,0.239-0.023,0.374-0.078c0.447-0.189,0.712-0.352,1.072-0.679
			c0.341-0.317,0.385-0.868,0.158-1.264c-1.976-3.452-6.751,0.594-3.653,3.378c2.585,2.324,7.253-0.413,7.077-3.53
			c0.24,0.275,0.472,0.557,0.69,0.864c1.809,2.593,3.025,5.863,3.257,9.153c-0.108,1.287-0.272,2.716-0.239,4.082
			c-0.215,1.061-0.557,2.098-1.04,3.077c-3.289,6.667-11.304,9.229-17.754,5.495c-3.495-2.029-5.701,4.574-0.872,4.695
			c0.591,0.016,1-0.482,1.035-1.037c0.036-0.536-0.072-0.908-0.244-1.317c0.027,0.033,0.055,0.064,0.086,0.099
			c0.245,0.167,0.5,0.301,0.775,0.405c1.035,0.344,2.032,0.683,3.109,0.903c1.62,0.331,3.452,0.305,5.062-0.078
			c1.082-0.254,2.174-0.614,3.23-1.069c-0.646,0.784-1.182,1.658-1.354,2.615c-0.579,3.293,0.954,6.104,4.291,6.855
			c2.91,0.652,6.67-0.774,7.348-3.908c0.3-1.355-0.348-2.416-1.304-2.747c-0.353-0.368-1.004-0.398-1.422-0.085
			c-0.286,0.064-0.545,0.233-0.688,0.49c-0.007,0.005-0.015,0.009-0.019,0.011c-0.749,0.563-0.501,1.892,0.354,1.97
			c0.276,0.229,0.66,0.327,1.002,0.2c-0.195,0.409-0.501,0.89-0.552,0.931c-0.851,0.757-2.129,1.201-3.272,1.176
			c-2.739-0.065-5.079-2.612-3.316-5.372c1.101-1.723,2.838-2.832,3.964-4.536c1.043-1.579,1.78-3.316,2.681-4.975
			c0.316,0.413,0.71,0.771,1.213,1.054c3.459,1.952,6.485-2.59,5.781-5.621c-0.143-0.616-0.66-0.815-1.14-0.722
			c-0.433-0.106-0.979,0.043-1.162,0.473c-0.031,0.073-0.046,0.144-0.067,0.214c-0.223,0.227-0.345,0.569-0.447,0.855
			c-0.189,0.546,0.203,1.122,0.718,1.276c-0.683,1.836-3.263,2.604-3.726,0.032c1.53-4.214,1.374-9.332-0.554-13.295
			c3.167,2.532,5.92,5.721,8.682,8.626c3.59,3.758,7.419,9.092,12.432,10.95c2.427,0.902,4.674,0.679,6.851-0.734
			c1.829-1.189,3.212-3.986,1.629-5.942c-2.594-3.203-7.904,0.571-4.139,2.974c0.476,0.304,1.144,0.103,1.413-0.372
			c0.411-0.712,0.479-1.195,0.426-1.832c0.012,0.002,0.028,0.007,0.045,0.012c0.211,0.727,0.418,1.459,0.625,2.186
			c-0.401,0.663-0.943,1.178-1.624,1.548c-0.863,0.462-1.774,0.776-2.771,0.657c-1.919-0.231-3.68-1.328-5.131-2.566
			c-2.627-2.236-4.917-4.861-7.308-7.337c-3.421-3.537-6.772-7.548-10.764-10.518c0.441,0.062,0.884,0.118,1.331,0.159
			c0.166,0.06,0.329,0.113,0.5,0.176c5.35,2.026,10.631,6.388,16.455,6.882c3.242,0.272,6.229-1.592,4.806-4.042
			c-0.011-0.058-0.023-0.114-0.033-0.175c-0.084-0.425-0.356-0.652-0.67-0.724c-0.203-0.207-0.437-0.416-0.708-0.625
			c-0.506-0.396-1.28-0.438-1.625,0.209c-0.751,1.39-0.599,2.513,0.18,3.115c-0.772,0.212-1.884,0.189-2.526,0.041
			c-1.504-0.344-2.969-0.797-4.368-1.468c-2.204-1.054-4.293-2.35-6.5-3.388c1.034-0.082,2.056-0.192,3.062-0.329
			c7.525-1.036,18.125-5.161,19.301-13.792c0.45-3.336-0.585-8.338-3.963-9.965c-2.716-1.313-7.46-1.556-8.845,1.86
			c-0.918,2.271,0.179,5.391,3.087,4.79c2.212-0.455,2.36-2.533,0.657-3.751c-0.467-0.335-1.145-0.079-1.418,0.373
			c-0.284,0.464-0.382,0.841-0.371,1.152c-0.356-0.344-0.351-1.034-0.177-1.466c0.708-1.75,3-2.107,4.636-1.66
			c3.317,0.903,4.663,4.559,4.409,7.762c-0.525,6.478-7.287,9.851-12.803,11.555c-3.663,1.14-7.651,1.721-11.546,1.471
			c2.225-1.971,3.083-5.704,1.25-8.227c-0.969-1.33-2.399-2.754-4.168-2.694c-0.675,0.022-1.076,0.351-1.294,0.81
			c-0.438,0.168-0.758,0.595-0.569,1.189c0.049,0.159,0.092,0.283,0.142,0.406c0.015,0.034,0.026,0.076,0.042,0.114
			c0.05,0.149,0.132,0.277,0.223,0.389c0.034,0.053,0.064,0.103,0.105,0.16c0.619,0.905,1.825,0.472,1.905-0.481
			c0.043-0.04,0.084-0.084,0.129-0.127c0.079-0.073,0.133-0.146,0.182-0.223c0.221,0.15,0.5,0.409,0.632,0.535
			c0.462,0.439,1.067,0.979,1.223,1.63c0.387,1.588,0.423,3.555-0.875,4.794c-0.601,0.573-1.359,0.883-2.206,1.023
			c-1.462-0.426-2.951-0.786-4.453-1.08c-0.3-0.128-0.593-0.259-0.888-0.401c-3.376-1.634-7.266-2.429-11.087-2.305
			c0.288-0.148,0.576-0.301,0.864-0.458c1.621-0.67,3.876-1.949,5.633-3.566c5.061-3.517,9.936-7.311,16.207-8.524
			c1.943-0.374,4.576-0.803,6.394,0.26c2.015,1.179,2.942,4.064,2.244,6.317c-0.346,1.152-1.273,0.782-1.981,0.173
			c0.821-0.607,1.085-1.416,0.545-2.708c-0.188-0.45-0.486-0.745-0.994-0.763c-4.153-0.158-2.609,4.24-0.121,5.588
			c4.74,2.566,5.453-4.174,4.122-7.269c-2.584-5.984-10.879-4.131-15.577-2.193c-2.69,1.113-5.133,2.641-7.51,4.286
			c0.26-1.284,0.187-2.625,0.225-4.171c0.023-0.831,0.109-3.365,1.292-3.602c0.097-0.017,0.292,0.005,0.439,0.06
			c-0.056,0.329-0.119,0.655-0.162,0.985c-0.052,0.414,0.178,0.719,0.5,0.887c0.009,0.005,0.009,0.01,0.014,0.012
			c0.633,0.476,1.218,0.299,1.861,0c0.509-0.234,0.65-0.978,0.374-1.425c-0.238-0.39-0.37-0.824-0.605-1.216
			c-0.486-1.048-1.691-1.788-2.972-1.311c-2.957,1.105-2.684,4.125-2.738,6.944c-0.061-0.068-0.106-0.137-0.169-0.203
			c-1.698-1.889-4.52-2.274-6.832-1.303c-2.242,0.945-5.258,2.193-5.022,5.099c0.396,4.905,8.683,3.359,5.511-0.627
			c-0.113-0.143-0.297-0.236-0.5-0.278c-0.224-0.2-0.516-0.262-0.8-0.213c-0.741-0.186-1.508,0.646-1.217,1.4
			c-0.072,0.224-0.1,0.46-0.033,0.702c-0.319-0.316-0.479-1.081-0.493-2.307c0.42-0.384,0.886-0.706,1.395-0.962
			c1.045-0.534,2.238-1.199,3.454-1.223c1.927-0.033,4.151,1.184,3.468,3.504c-0.25,0.835-0.647,1.554-1.146,2.187
			c-1.813,1.279-3.65,2.511-5.592,3.566c-0.722,0.268-1.437,0.504-2.131,0.731c-0.202-0.04-0.413-0.018-0.63,0.071
			c-4.646,1.978-10.328,2.468-14.479,5.491c0.379-1.052,0.725-2.114,1.013-3.191c0.613-1.107,1.243-2.317,2.148-3.196
			c0.595-0.579,2.036-1.914,2.969-1.206c0.086,0.237-0.077,0.303-0.489,0.196c-1.312,0.218-0.751,2.224,0.555,2.004
			c2.392-0.398,2.92-3.13,0.612-4.163c-1.705-0.766-3.297-0.005-4.614,1.225c1.609-2.201,3.542-4.15,5.905-5.523
			c3.243-1.887,6.957-3.012,9.934-5.341c4.106-3.22,7.041-10.613,3.909-15.53c-1.482-2.322-3.87-2.973-6.456-2.212
			c-2.102,0.612-3.61,4.034-1.673,5.705c2.451,2.108,4.775-3.023,2.271-3.69c0.909-0.345,2.06-0.473,2.907,0.065
			c1.481,0.948,1.939,2.832,1.965,4.505c0.062,3.994-1.28,7.657-4.737,9.917c-3.527,2.313-7.644,3.5-11,6.097
			c-1.097,0.853-2.087,1.781-2.998,2.772c0.148-2.046,0.312-4.108,0.771-6.092c0.262-1.136,0.558-2.266,1.219-3.243
			c1.078-1.593,4.349-2.747,4.956,0.276c-0.086-0.44-0.446-0.681-0.835-0.727c-0.182-0.071-0.399-0.081-0.644,0.001
			c-0.763,0.256-1.191,0.508-1.339,1.344c-0.147,0.839,0.684,1.705,1.529,1.174c0.01-0.009,0.024-0.019,0.04-0.028
			c1.373,0.685,3.767-2.128,1.758-4.334c-2.963-3.248-7.199-0.419-8.219,3.149c-0.135-0.297-0.286-0.587-0.458-0.874
			c-0.115-1.459-0.343-2.899-0.734-4.284c-0.239-0.85-0.55-1.738-0.948-2.6c0.132-1.382,0.408-2.697,0.749-3.794
			c0.52-1.687,1.336-3.797,2.935-4.757c0.932-0.554,2.257-0.998,3.257-0.298c0.707,0.486,1.733,1.434,1.63,2.427
			c-0.142-0.016-0.275-0.019-0.402-0.019c-0.323-1.184-1.24-2.238-2.6-1.405c-1.911,1.167-1.02,3.197,0.407,4.366
			c1.773,1.461,4.394-0.402,4.609-2.401c0.269-2.49-1.607-4.582-3.874-5.293c-4.483-1.403-7.5,4.421-8.228,7.84
			c-0.045,0.221-0.089,0.445-0.133,0.67c-0.867-1.024-1.942-1.832-3.281-2.204c-2.674-0.749-4.536,0.595-5.198,3.224
			c-0.133,0.537,0.168,1.146,0.724,1.278c0.908,0.22,1.508,0.368,2.395,0c0.544-0.224,1.066-0.94,0.617-1.528
			c-0.169-0.218-0.306-0.38-0.464-0.515c0.126,0.005,0.266,0.035,0.438,0.123c0.835,0.439,1.536,1.088,2.145,1.812
			c0.87,1.035,1.809,2.377,2.252,3.782c0.007,0.032,0.01,0.067,0.01,0.104c-6.846-3.331-17.107,3.558-17.341,11.205
			c-0.062,2.159,0.43,4.646,2.266,6.013c1.504,1.125,4.075,1.739,5.781,0.614c1.473-0.978,2.359-2.489,1.85-4.288
			c-0.194-0.69-0.651-1.105-1.205-1.312c-0.237-0.494-0.833-0.798-1.419-0.479c-0.893-0.572-2.054,0.693-1.299,1.595
			c0.031,0.549,0.413,1.065,0.997,0.999c0.272,0.068,0.573,0.025,0.819-0.106c0.013-0.006,0.021-0.01,0.027-0.012
			c0.438,0.247-0.461,1.652-0.818,1.807c-0.939,0.404-2.365,0.372-3.222-0.266c-1.396-1.041-1.876-2.882-1.704-4.564
			c0.321-3.051,2.246-5.914,4.746-7.642c1.55-1.08,3.53-1.829,5.49-2.045c0,0.02-0.004,0.038-0.004,0.058
			c-1.543,0.12-2.999,0.74-4.062,2.069c-1.915,2.405-2.275,8.492,2.184,8.419c3.559-0.06,4.884-4.401,1.44-5.63
			c-0.462-0.287-1.177-0.154-1.493,0.335c-0.01,0.009-0.015,0.022-0.019,0.034c-0.117,0.174-0.153,0.378-0.139,0.572
			c-0.11,0.281-0.107,0.589,0.066,0.866c0.053,0.085,0.111,0.17,0.159,0.255c0.153,0.64,0.814,0.819,1.344,0.621
			c0.019,0.574-0.718,1.159-1.62,0.81c-0.876-0.339-1.333-1.262-1.333-2.154c0-1.197,0.325-2.303,1.301-3.078
			c1.556-1.236,3.813-1.317,5.667-0.542c1.669,1.867,2.136,5.178,2.177,7.397c0.044,2.31-0.096,5.154-1.031,7.499
			c-0.462,0.785-0.922,1.562-1.393,2.329c-0.036,0.045-0.075,0.096-0.116,0.138c-0.139,0.149-0.217,0.313-0.254,0.477
			c-0.014,0.026-0.032,0.057-0.049,0.084c-0.763,1.268-1.528,2.538-2.287,3.809c0.152-2.769-0.64-5.922-4.071-5.404
			c-3.006,0.452-6.714,5.066-3.918,7.893c1.927,1.953,4.683,0.442,3.915-2.242c-0.151-0.52-0.63-0.798-1.14-0.747
			c-0.111-0.014-0.229-0.011-0.336,0.02c-0.052,0.012-0.097,0.021-0.146,0.036c-0.317-0.042-0.628,0.061-0.867,0.249
			c-0.063,0.034-0.123,0.078-0.176,0.118c0.009-0.419,0.106-0.835,0.315-1.245c0.585-0.953,3.062-3.593,4.191-1.19
			c0.765,1.631,0.125,3.756-0.462,5.354c-0.651,1.76-1.347,3.457-1.851,5.203c-0.851,1.638-1.665,3.299-2.404,4.998
			c-1.421,3.258-2.577,6.771-3.146,10.354c-0.292-0.532-0.581-1.058-0.895-1.577c-0.876-1.457-1.953-3.062-2.219-4.77
			c-0.1-0.659-0.296-3.187,0.861-3.368c0.104-0.01,0.201,0,0.291,0.016c-0.039,0.356-0.005,0.647,0.061,1.055
			c0.082,0.539,0.781,0.895,1.274,0.727c3.286-1.113-1.425-6.457-4.021-2.186c-0.536,0.886-0.725,1.846-0.687,2.826
			c-0.205-0.315-0.407-0.64-0.596-0.965c-1.403-2.376-2.447-4.973-3.012-7.683c-0.171-1.514-0.154-3.045,0.214-4.438
			c0.368-1.381,1.16-2.787,2.842-2.402c1.188,0.27,3.222,0.843,2.659,2.622c-0.186,0.573-0.422,1.121-0.708,1.653
			c-0.653,0.706-1.021,0.955-1.119,0.746c0.215-0.256,0.299-0.541,0.299-1.025c0.989-0.665-0.021-2.304-1.167-1.719
			c-1.317,0.671-1.793,1.354-1.497,2.817c0.039,0.196,0.159,0.362,0.306,0.495c0.534,1.538,2.684,2.044,4.448,0.424
			c3.524-3.23,0.792-7.552-3.138-8.082c-1.046-0.145-1.896-0.026-2.589,0.291c0.288-0.789,0.643-1.58,1.051-2.386
			c0.888-1.759,1.418-3.306,0.6-5.175c-0.543-1.232-2.304-1.869-3.537-1.469c-0.958,0.309-1.801,0.815-2.031,1.757
			c-0.2,0.337-0.234,0.785-0.025,1.09c0.22,0.325,0.428,0.524,0.729,0.807c0.299,0.288,0.644,0.339,1.003,0.247
			c0.12-0.001,0.245-0.015,0.359-0.048c0.51-0.148,0.764-0.591,0.738-1.059c0.028-0.062,0.063-0.125,0.102-0.187
			c0.089-0.162,0.132-0.318,0.136-0.47c0.718,0.64,0.898,1.955,0.437,2.865c-0.195,0.394-0.396,0.779-0.607,1.162
			c-0.428,0.808-0.763,1.605-1.119,2.453c-0.779,1.841-1.068,4.074-0.881,6.067c0.121,1.355,0.342,2.715,0.651,4.052
			c-1.106-1.712-2.171-3.441-3.159-5.206c-0.897-2.09-1.779-4.191-2.692-6.286c-0.334-0.766-0.703-1.509-1.085-2.246
			c-1.032-5.395-1.456-11.757,1.417-16.399c0.062-0.1,0.13-0.202,0.192-0.303c0.129-0.04,0.259-0.081,0.395-0.115
			c2.179-0.547,5.502-1.03,7.565,0.136c1.106,0.62,2.168,2.013,0.883,3.047c-0.139,0.109-0.287,0.213-0.445,0.306
			c-0.043-0.13-0.114-0.256-0.218-0.377c-0.56-0.641-0.639-0.828-1.479-1.09c-0.681-0.211-1.27,0.353-1.31,1.005
			c-0.01,0.287-0.051,0.571-0.118,0.85c-0.108,0.482,0.072,0.907,0.475,1.178c0.092,0.062,0.189,0.096,0.284,0.123
			c0.618,0.941,2.839,0.49,3.776-0.128c3.35-2.196,1.153-6.437-2.115-7.211c-1.571-0.373-3.564-0.566-5.497-0.373
			c1.208-1.143,2.639-2.037,4.253-2.442c1.57-0.394,2.931-0.261,4.516-0.102c0.244,0.021,0.427,0.072,0.572,0.135
			c-0.167-0.012-0.344,0.014-0.53,0.092c-0.602,0.27-0.814,0.426-1.185,0.991c-0.319,0.476-0.094,1.148,0.369,1.424
			c1.071,0.643,2.95,0.901,3.803-0.259c0.936-1.282,0.665-3.479-1.003-4.076c-4.52-1.613-9.203-0.097-12.513,3.062
			c0.347-1.077,0.613-2.17,0.771-3.265c0.825-1.096,1.712-2.138,2.653-3.094c2.354-2.396,5.189-4.769,8.574-5.45
			c1.858-0.374,3.944-0.251,4.971,1.652c0.542,1.019,0.317,1.94-0.434,2.397c-0.469-5.212-6.265,0.349-3.171,1.921
			c1.859,0.947,4.865,0.427,5.742-1.662c1.013-2.411-0.718-4.914-2.823-6.037c-5.202-2.776-11.93,2.85-15.426,6.911
			c-0.364-3.562-2.295-8.05-6.378-8.397c-2.193-0.191-6.29,0.996-4.875,4.044c0.066,0.156,0.154,0.29,0.242,0.419
			c0.121,0.594,0.753,1.012,1.283,0.897c0.795,0.168,1.624-0.241,1.926-1.383c0.119-0.455-0.074-0.936-0.477-1.177
			c-0.283-0.167-0.535-0.278-0.762-0.338c0.014-0.008,0.021-0.018,0.034-0.024c1.264-0.576,2.839-0.59,3.996,0.246
			c2.155,1.573,3.1,4.223,2.977,6.848c-0.03,0.59-0.097,1.18-0.182,1.754c-3.074,4.41-5.367,9.422-6.312,14.708
			c-0.404-0.707-0.795-1.423-1.163-2.153c-1.066-2.115-2.307-4.915-1.657-7.352c0.277-1.049,1.082-2.937,2.531-2.332
			c0.25,0.132,0.389,0.321,0.425,0.555c-0.858-0.327-1.976,0.532-1.305,1.415c1.805,2.38,4.022-0.093,3.165-2.394
			c-1.329-3.588-5.95-1.052-6.662,1.62c-0.609,2.293-0.312,4.525,0.433,6.665c-1.884-1.67-4.281-2.518-7.256-2.231
			c-3.646,0.357-7.81,3.557-6.717,7.728c1.034,3.964,6.561,6.377,9.515,2.849c0.681-0.813,0.864-1.88,0.673-2.768
			c0.006-0.116,0-0.237-0.042-0.368c-0.233-0.804-0.611-1.525-1.309-1.869c-0.003-0.001-0.006-0.001-0.006-0.003
			c-0.223-0.328-0.513-0.604-0.911-0.77c-0.4-0.172-0.832-0.276-1.218,0.012c-0.224,0.172-0.398,0.313-0.553,0.551
			c-0.021,0.029-0.031,0.061-0.052,0.089c-0.791,0.136-1.104,1.28-0.492,1.82c0.013,0.018,0.022,0.036,0.035,0.051
			c0.081,0.131,0.169,0.257,0.265,0.38c0.286,0.39,0.577,0.685,1.036,0.872c0.561,0.231,1.008,0.059,1.349-0.282
			c0.01,0.017,0.016,0.029,0.029,0.041c-0.022,0.062-0.05,0.131-0.076,0.224c-0.152,0.515-0.431,0.992-0.944,1.238
			c-1.683,0.813-4.182,0.2-4.979-1.637c-1.217-2.793,0.985-5.348,3.627-5.917c6.279-1.355,9.234,3.884,10.59,9.244
			c1.44,5.701,2.594,10.829,5.915,15.808c0.185,0.272,0.377,0.546,0.565,0.819c-4.414-1.764-8.806-3.622-13.356-4.994
			c-0.79-0.738-1.744-1.792-1.641-2.884c0.446-1.191,1.289-1.687,2.54-1.493c0.013,0.012,0.032,0.021,0.04,0.036
			c-0.097,0.22-0.125,0.471-0.074,0.725c0.025,0.129,0.046,0.262,0.074,0.393c0.088,0.473,0.565,0.737,1,0.766
			c3.152,0.2,2.375-2.979,0.026-3.76c-3.246-1.076-6.384,1.377-5.398,4.795c0.054,0.184,0.12,0.36,0.188,0.531
			c-2.308-0.572-4.641-1.073-6.917-1.781c-1.941-0.602-8.675-2.381-8.35-5.386c0.197-1.911,3.431-2.443,4.912-2.335
			c1.004,0.071,2.87,0.497,2.844,1.846c-0.116-0.047-0.238-0.081-0.378-0.095c-0.479-0.102-0.954-0.102-1.43,0
			c-0.702,0.073-1.138,0.602-1.003,1.315c0.352,1.84,2.297,3.027,3.79,1.396c1.526-1.669,1.316-3.771-0.282-5.304
			c-2.714-2.612-11.721-0.981-10.452,3.908c0.594,2.288,2.522,3.847,4.836,4.968c-3.242-0.32-6.527-0.594-9.556-1.742
			c-2.361-0.898-5.671-2.744-5.579-5.746c0.04-1.444,0.787-2.794,2.361-2.777c0.289,0.002,1.205,0.029,1.624,0.295
			c-0.362,0.124-0.646,0.438-0.627,0.946c-0.013,0.055-0.028,0.112-0.043,0.169c-0.185,0.456,0.132,0.922,0.475,1.174
			c0.104,0.077,0.201,0.147,0.302,0.224c0.375,0.272,0.953,0.142,1.259-0.161c2.01-1.987,0.754-4.098-1.741-4.634
			c-2.166-0.471-4.445,0.613-5.331,2.518c-0.158-5.461,2.371-11.802,6.05-14.434c2.325-1.668,5.06-2.496,7.925-2.212
			c3.163,0.309,5.671,2.382,4.853,5.82c-0.595,2.52-2.599,5.407-5.489,5.354c-1.737-0.037-5.545-1.379-4.55-3.797
			c0.257-0.629,1.027-1.388,1.862-1.845c-0.01,0.11-0.01,0.229,0,0.355c0.079,1.559,2.213,1.929,3.325,1.272
			c1.361-0.798,1.635-2.89-0.062-3.635c-2.243-0.988-4.781,0.041-6.347,1.846c-3.087,3.552,1.402,7.497,4.893,7.832
			c3.474,0.337,6.351-1.923,7.761-4.99c1.324-2.881,1.091-6.475-1.414-8.623c-2.671-2.289-7.455-2.143-10.562-0.917
			c-6.555,2.59-10.291,9.736-10.345,16.614c-0.037,4.516,1.602,8.877,4.988,11.124c-3.342-0.431-6.516-1.32-9.262-3.232
			c-3.444-2.388-9.577-7.972-14.225-6.214c-4.981,1.878-4.93,11.52,1.417,10.798c1.997-0.229,4.199-1.399,3.821-3.782
			c-0.273-1.756-1.948-2.32-3.222-1.117c-0.619,0.581-0.231,1.467,0.458,1.74c0.303,0.118,0.489,0.116,0.672,0.09
			c-0.063,0.127-0.125,0.256-0.19,0.387c-0.589,0.534-1.455,0.702-2.231,0.607c-1.898-0.237-2.63-2.029-2.183-3.766
			c0.425-1.681,1.261-3.247,3.223-3.089c3.5,0.282,6.793,2.891,9.57,4.85c3.058,2.159,5.999,3.543,9.61,4.226
			c-4.855,1.208-9.328,3.397-13.614,6.16c-3.4,2.19-7.841,4.967-12.075,3.685c-1.296-0.394-5.838-2.15-3.379-4.305
			c0.303-0.265,0.634-0.434,0.98-0.476c-0.016,0.065-0.025,0.138-0.025,0.211c0,1.091,0.072,2.058,1.545,1.993
			c0.876-0.039,1.953-0.382,1.981-1.457c0.047-2.216-3.173-3.519-4.919-2.498C10.36,75.134,10.7,78.849,13.666,80.562
			 M116.928,97.069c0.43-1.978,0.99-3.939,1.733-5.901c0.219-0.587,0.464-1.207,0.714-1.844c-0.555,2.258-1.126,4.511-1.713,6.758
			C117.399,96.387,117.154,96.714,116.928,97.069 M112.837,158.952c0.195,0.471,0.397,0.944,0.603,1.417
			c0.081,0.406,0.169,0.809,0.27,1.208C113.373,160.724,113.08,159.848,112.837,158.952 M108.805,94.807
			c0.257-3.181,0.999-6.261,2.049-9.242c-0.438,1.888-0.753,3.804-0.968,5.734c-0.382,1.215-0.704,2.441-0.976,3.681
			C108.875,94.923,108.838,94.864,108.805,94.807 M97.158,168.099c-0.1,0.085-0.186,0.174-0.247,0.281
			c-0.088,0.016-0.173,0.03-0.258,0.061c0.084-0.181,0.171-0.362,0.266-0.539C96.99,167.976,97.069,168.043,97.158,168.099
			 M100.745,167.906c0.461-0.503,0.891-1.046,1.297-1.617c0.006,0.09,0.017,0.176,0.023,0.264c0,0.062,0.021,0.118,0.035,0.176
			c-0.035,0.037-0.06,0.075-0.094,0.114C101.625,167.286,101.197,167.685,100.745,167.906 M106.889,146.795
			c-0.282,1.353-0.593,2.694-0.958,4.02c-1.652,4.199-3.583,8.301-5.617,12.326c-0.688,0.839-1.429,1.641-2.223,2.405
			C101.168,159.372,104.304,153.194,106.889,146.795"/>
		<g>
			<path fill="#94C634" d="M50.149,84.631l-3.518-7.274l-2.673-1.366c0,0-2.048,2.069-4.845,0.845
				c-2.8-1.223-2.823-3.739-2.823-3.739l-3.934-1.211l-7.181,3.192c0,0,0.811,0.331,0.94,1.99c0.199,2.595,1.979,2.999,1.979,2.999
				l1.09-0.749l-1.286,6.432l-3.683,8.916c0,0,5.18,1.994,7.423,2.3c2.965,0.411,6.73,2.537,6.73,2.537l3.594-10.26l2.258-4.18
				l1.048,2.464c0,0,1.644-1.554,3.123-1.786C49.554,85.557,50.149,84.631,50.149,84.631"/>
			<path fill="#138E27" d="M42.949,52.423l-3.576-7.252l-2.682-1.341c0,0-2.032,2.087-4.835,0.884
				c-2.812-1.203-2.859-3.715-2.859-3.715l-3.942-1.186L17.9,43.067c0,0,0.815,0.325,0.955,1.982
				c0.221,2.593,2.004,2.983,2.004,2.983l1.083-0.756l-1.231,6.445l-3.613,8.939c0,0,5.193,1.953,7.435,2.246
				c2.976,0.382,6.756,2.48,6.756,2.48l3.514-10.291l2.227-4.198l1.065,2.458c0,0,1.628-1.567,3.106-1.816
				C42.367,53.351,42.949,52.423,42.949,52.423"/>
			<path fill="#115E1C" d="M93.547,73.052l-5.99-5.41l-2.985-0.249c0,0-1.116,2.689-4.17,2.616
				c-3.054-0.075-4.022-2.395-4.022-2.395l-4.095,0.367l-5.452,5.677c0,0,0.873,0,1.614,1.485c1.156,2.331,2.958,2.032,2.958,2.032
				l0.731-1.108l1.223,6.447l-0.066,9.647c0,0,5.545-0.109,7.739-0.675c2.904-0.747,7.185-0.204,7.185-0.204l-0.524-10.866
				l0.524-4.726l1.898,1.889c0,0,0.936-2.065,2.225-2.838C93.348,74.134,93.547,73.052,93.547,73.052"/>
			<path fill="#138E27" d="M82.348,98.07l-6.837-4.27l-2.987,0.276c0,0-0.628,2.847-3.649,3.309
				c-3.019,0.464-4.376-1.648-4.376-1.648l-3.97,1.08l-4.379,6.55c0,0,0.862-0.156,1.852,1.178c1.544,2.09,3.271,1.479,3.271,1.479
				l0.522-1.221l2.327,6.13l1.617,9.514c0,0,5.438-1.086,7.501-2.025c2.729-1.244,7.04-1.464,7.04-1.464l-2.413-10.607l-0.304-4.743
				l2.199,1.525c0,0,0.561-2.198,1.691-3.188C82.338,99.17,82.348,98.07,82.348,98.07"/>
			<path fill="#138E27" d="M147.505,27.143l-5.988-5.408l-2.989-0.254c0,0-1.117,2.694-4.168,2.618
				c-3.054-0.073-4.021-2.393-4.021-2.393l-4.101,0.368l-5.448,5.678c0,0,0.874,0,1.616,1.488c1.156,2.325,2.963,2.026,2.963,2.026
				l0.725-1.109l1.222,6.449l-0.066,9.647c0,0,5.547-0.113,7.74-0.674c2.904-0.747,7.189-0.202,7.189-0.202l-0.525-10.869
				l0.525-4.724l1.895,1.888c0,0,0.934-2.065,2.219-2.836C147.308,28.221,147.505,27.143,147.505,27.143"/>
			<path fill="#138E27" d="M126.737,7.879l-5.991-5.405l-2.988-0.252c0,0-1.119,2.692-4.172,2.618
				c-3.053-0.078-4.021-2.393-4.021-2.393l-4.097,0.365l-5.45,5.677c0,0,0.877,0,1.614,1.487c1.159,2.328,2.96,2.029,2.96,2.029
				l0.729-1.109l1.223,6.449l-0.066,9.647c0,0,5.544-0.113,7.741-0.676c2.903-0.748,7.19-0.203,7.19-0.203l-0.532-10.869
				l0.532-4.723l1.892,1.887c0,0,0.938-2.062,2.224-2.838C126.533,8.963,126.737,7.879,126.737,7.879"/>
			<path fill="#115E1C" d="M177.572,34.883l-5.989-5.41l-2.988-0.249c0,0-1.122,2.695-4.172,2.619
				c-3.057-0.078-4.021-2.396-4.021-2.396l-4.096,0.368l-5.453,5.676c0,0,0.875,0,1.616,1.485c1.157,2.332,2.96,2.031,2.96,2.031
				l0.727-1.106l1.226,6.444l-0.065,9.649c0,0,5.542-0.114,7.738-0.677c2.901-0.749,7.187-0.199,7.187-0.199l-0.526-10.869
				l0.526-4.725l1.895,1.888c0,0,0.937-2.063,2.223-2.84C177.37,35.964,177.572,34.883,177.572,34.883"/>
			<path fill="#138E27" d="M74.108,25.933l-4.168-6.919l-2.785-1.112c0,0-1.846,2.251-4.749,1.288
				c-2.898-0.962-3.156-3.463-3.156-3.463l-4.026-0.844l-6.855,3.845c0,0,0.835,0.256,1.113,1.892
				c0.438,2.568,2.25,2.806,2.25,2.806l1.018-0.846l-0.693,6.523l-2.854,9.217c0,0,5.34,1.507,7.603,1.61
				c2.996,0.128,6.938,1.9,6.938,1.9l2.635-10.55l1.872-4.371l1.27,2.359c0,0,1.493-1.702,2.946-2.067
				C73.604,26.909,74.108,25.933,74.108,25.933"/>
			<path fill="#FFA400" d="M191.621,72.142l-3.933-7.058l-2.751-1.208c0,0-1.92,2.184-4.783,1.124
				c-2.865-1.052-3.039-3.565-3.039-3.565l-3.996-0.98l-6.983,3.61c0,0,0.829,0.284,1.052,1.931c0.352,2.58,2.151,2.878,2.151,2.878
				l1.042-0.811l-0.91,6.498l-3.16,9.11c0,0,5.287,1.69,7.542,1.866c2.992,0.233,6.87,2.138,6.87,2.138l2.991-10.456l2.015-4.305
				l1.191,2.402c0,0,1.543-1.65,3.01-1.967C191.083,73.099,191.621,72.142,191.621,72.142"/>
			<path fill="#94C634" d="M167.981,93.464l-5.987-5.405l-2.989-0.254c0,0-1.119,2.691-4.171,2.618
				c-3.052-0.074-4.022-2.394-4.022-2.394l-4.096,0.366l-5.45,5.679c0,0,0.876,0,1.616,1.485c1.16,2.326,2.962,2.028,2.962,2.028
				l0.726-1.103l1.225,6.442l-0.068,9.649c0,0,5.549-0.113,7.741-0.677c2.905-0.747,7.188-0.199,7.188-0.199l-0.523-10.868
				l0.523-4.725l1.897,1.885c0,0,0.937-2.063,2.222-2.839C167.782,94.548,167.981,93.464,167.981,93.464"/>
			<path fill="#138E27" d="M214.497,78.29l-6.925-4.125l-2.984,0.343c0,0-0.572,2.861-3.575,3.389
				c-3.007,0.529-4.41-1.554-4.41-1.554l-3.946,1.164l-4.234,6.641c0,0,0.859-0.168,1.873,1.142
				c1.592,2.053,3.302,1.407,3.302,1.407l0.495-1.23l2.459,6.08l1.818,9.472c0,0,5.413-1.202,7.458-2.186
				c2.7-1.309,7.007-1.615,7.007-1.615l-2.641-10.551l-0.406-4.74l2.23,1.48c0,0,0.516-2.209,1.622-3.223
				C214.511,79.389,214.497,78.29,214.497,78.29"/>
		</g>
	</g>
	<g>
		<g>
			<path fill="#724D17" d="M537.63,131.223c-10.732,0-18.824,8.098-18.824,18.849c0,10.74,8.072,18.843,18.773,18.843
				c10.691,0,18.754-8.104,18.754-18.843C556.333,139.32,548.292,131.223,537.63,131.223z M537.579,163.901
				c-6.676,0-11.525-5.843-11.525-13.883c0-7.886,4.961-13.829,11.525-13.829c6.672,0,11.508,5.816,11.508,13.829
				C549.087,158.058,544.251,163.901,537.579,163.901z"/>
			<path fill="#724D17" d="M501.772,168.915c3.748,0,6.738-0.654,9.641-2.116v-5.285c-2.783,1.723-5.014,2.388-7.883,2.388
				c-7.438,0-12.84-5.865-12.84-13.941c0-7.981,5.256-13.782,12.498-13.782c2.781,0,5.111,0.718,7.566,2.382v-5.667
				c-2.861-1.196-5.293-1.67-8.555-1.67c-10.691,0-18.754,8.125-18.754,18.902C483.446,160.833,491.325,168.915,501.772,168.915z"/>
			<path fill="#724D17" d="M604.89,167.639c1.375,0,2.256,0.043,3.729,0.197l-0.123-1.191c-0.541-4.61-0.822-7.184-1.053-10.229
				l-1.055-14.031c-0.332-3.988-0.518-7.157-0.586-10.167c-1.984,0.176-2.98,0.229-4.977,0.229c-2.207,0-3.717-0.059-6.412-0.25
				c-0.137,0.495-0.242,0.92-0.326,1.245l-0.078,0.282c-0.102,0.394-0.355,1.281-0.773,2.695l-6.506,22.162l-5.744-19.142
				c-0.451-1.589-0.834-2.882-1.127-3.86c-0.25-0.839-0.43-1.461-0.537-1.85c-0.051-0.175-0.102-0.398-0.16-0.659
				c-0.061-0.261-0.129-0.547-0.209-0.873c-2.652,0.192-4.207,0.25-6.385,0.25c-2.045,0-3.01-0.049-5.037-0.229
				c-0.07,2.781-0.238,5.955-0.531,10.161l-1.105,14.038c-0.211,2.897-0.49,5.37-1.043,10.229l-0.131,1.196
				c1.537-0.159,2.359-0.202,3.727-0.202c1.354,0,2.076,0.043,3.381,0.197v-0.537c0-3.264,0.109-5.764,0.537-14.222
				c0.289-5.03,0.453-8.024,0.5-9.433c0.086-0.941,0.164-2.185,0.27-3.754l0.166-2.605h1.281l3.873,12.437l2.805,8.715
				c1.5,4.556,1.971,6.024,2.934,9.442c0.914-0.074,1.449-0.117,2.51-0.117c1.041,0,1.518,0.042,2.436,0.117
				c0.984-3.514,1.451-4.966,2.941-9.448l2.805-8.709l3.877-12.437h1.279l0.129,1.946c0.307,4.722,0.393,5.928,0.791,13.846
				c0.441,8.411,0.561,10.91,0.561,14.222v0.537C602.806,167.682,603.53,167.639,604.89,167.639z"/>
			<path fill="#724D17" d="M455.702,137.13l4.533,0.139v-5.126c-2.914,0.144-4.586,0.186-9.525,0.186h-10.174
				c-4.912,0-6.576-0.042-9.478-0.186v5.126l4.513-0.139l6.701-0.074v21.077c0,1.952-0.107,4.917-0.275,7.928l-0.119,1.786
				c1.635-0.154,2.5-0.208,3.762-0.208c1.264,0,2.064,0.043,3.727,0.208c-0.223-3.557-0.348-7.066-0.348-9.714v-21.077l2.639,0.074
				H455.702z"/>
			<path fill="#724D17" d="M763.532,139.134c1.02-1.967,1.91-3.695,3.674-6.848c-1.166,0.117-1.949,0.16-3.236,0.16
				c-1.535,0-2.598-0.059-4.695-0.245l-0.145,0.362c-0.162,0.436-0.289,0.781-0.4,1.037c-1.25,3.137-3.34,7.816-5.738,12.824
				l-1.756,3.664l-0.699-1.397c-1.637-3.275-2.244-4.504-3.92-8.301c-1.846-4.057-2.348-5.248-3.455-8.188
				c-2.086,0.187-3.148,0.245-4.678,0.245c-1.305,0-2.072-0.037-3.246-0.16c1.762,3.132,2.635,4.833,3.896,7.29l3.859,7.662
				c1.094,2.228,1.953,3.918,2.535,5.088c0.393,0.782,0.668,1.335,0.83,1.664c0.139,0.362,0.344,0.771,0.578,1.276
				c0.174,0.362,0.375,0.766,0.582,1.217l0.047,0.25c0.055,1.547,0.055,2.1,0.055,3.44c0,2.536,0,4.939-0.08,7.667
				c1.465-0.159,2.297-0.202,3.682-0.202c1.377,0,2.217,0.043,3.67,0.202c-0.09-2.988-0.131-5.375-0.131-7.667
				c0-0.845,0.021-1.377,0.059-2.052c0.016-0.394,0.037-0.825,0.053-1.388l0.057-0.245c0.26-0.585,0.504-1.106,0.717-1.537
				c0.172-0.366,0.314-0.681,0.426-0.936c0.52-1.037,1.605-3.237,3.363-6.779L763.532,139.134z"/>
			<path fill="#724D17" d="M678.271,143.165c-0.721-2.175-1.32-3.987-1.766-5.37c-0.713-2.228-0.998-3.292-1.574-5.578
				c-2.195,0.218-3.1,0.218-5.898,0.218c-2.83,0-3.742,0-5.961-0.223c-0.141,0.569-0.252,1.042-0.336,1.409l-0.061,0.261
				c-0.617,2.127-1.5,5.062-2.93,9.283l-5.051,15.105c-0.934,2.765-2.24,6.327-3.262,8.874l-0.273,0.687
				c1.516-0.149,2.369-0.192,3.637-0.192c1.389,0,2.23,0.043,4.012,0.229c0.848-3.867,1.572-6.328,2.969-10.178l0.152-0.415h14.143
				l0.156,0.415c1.445,4.062,2.143,6.439,2.986,10.178c1.777-0.187,2.609-0.229,3.998-0.229c1.283,0,2.131,0.043,3.598,0.181
				c-1.268-3.318-2.553-6.715-3.488-9.55L678.271,143.165z M663.267,152.975l5.035-15.797h1.35l5.094,15.797H663.267z"/>
			<path fill="#724D17" d="M648.595,142.5c0-2.978-1.279-5.918-3.342-7.667c-2.238-1.887-5.064-2.558-10.801-2.558h-15.428
				l0.076,1.638c0.107,1.702,0.156,4.307,0.217,9.14c0,1.882,0.02,3.689,0.029,5.36c0.014,1.43,0.027,2.754,0.027,3.929
				c0,1.488,0,2.764-0.057,3.887l-0.061,6.056c-0.037,2.68-0.09,3.966-0.211,5.567l0.943-0.09c1.092-0.069,2.021-0.123,2.918-0.123
				c0.998,0,2.178,0.075,3.676,0.218c-0.01-0.255-0.025-0.579-0.025-0.952c-0.211-3.615-0.328-7.455-0.328-11.368v-2.228h8.432
				c3.457,0,4.918-0.123,6.506-0.548C645.409,151.683,648.595,147.27,648.595,142.5z M632.798,148.503h-6.568v-11.432h6.738
				c5.273,0,8.332,0.914,8.332,5.61C641.3,147.807,637.007,148.503,632.798,148.503z"/>
			<path fill="#724D17" d="M723.999,132.446c-1.213,0-2.027-0.054-3.74-0.219c0.164,1.712,0.221,2.605,0.305,4.515
				c0.113,2.329,0.217,5.875,0.277,9.735l0.174,7.672c0.029,1.116,0.055,1.818,0.055,2.659v4.248l-2.404-4.041l-5.875-10.438
				c-1.404-2.451-2.406-4.221-3.023-5.306l-2.414-4.169c-0.826-1.419-1.365-2.344-1.607-2.796l-0.23-0.447
				c-0.23-0.447-0.521-0.994-0.848-1.664c-2.232,0.192-3.248,0.25-5.014,0.25c-1.691,0-2.773-0.059-4.936-0.229
				c0.184,4.073,0.184,5.423,0.184,10.284l0.053,13.643c0,4.764-0.096,8.327-0.332,11.703c1.59-0.165,2.422-0.208,3.723-0.208
				c1.309,0,2.096,0.043,3.594,0.202l-0.229-4.775l-0.158-4.694c-0.131-3.058-0.164-9.64-0.164-13.049v-6.997l5.309,8.996
				c0.609,1.112,1.986,3.5,3.791,6.567l8.141,13.988c1.865-0.196,2.664-0.239,4.494-0.239c1.842,0,2.688,0.043,4.396,0.208
				l-0.047-1.526c-0.096-3.722-0.096-4.317-0.096-6.705v-2.367c0.053-3.434,0.053-5.752,0.053-6.959l-0.053-8.002
				c0-3.818,0.049-6.88,0.234-10.06C725.978,132.393,725.19,132.446,723.999,132.446z"/>
			<path fill="#724D17" d="M362.203,137.093c0.032-2.09,0.079-2.988,0.148-4.329l0.026-0.521c-1.382,0.153-2.181,0.191-3.604,0.191
				c-1.404,0-2.187-0.038-3.743-0.197l0.027,0.75c0.175,4.493,0.175,6.146,0.175,11.67v2.021h-16.717v-2.021
				c0-5.689,0.058-9.671,0.179-12.42c-1.537,0.154-2.365,0.197-3.782,0.197c-1.403,0-2.223-0.042-3.549-0.191
				c0.053,1.063,0.076,1.738,0.116,3.009l0.169,6.742c0.058,2.436,0.106,4.753,0.106,7.019c0,2.052-0.048,4.604-0.106,7.64
				l-0.106,5.194c-0.021,0.952-0.037,1.75-0.047,2.409c-0.02,1-0.033,1.669-0.062,2.036c0.003,0.351-0.025,0.862-0.063,1.479
				l-0.005,0.08c1.744-0.17,2.528-0.202,3.71-0.202c1.236,0,2.03,0.032,3.671,0.197c-0.111-2.169-0.132-3.344-0.158-4.902
				l-0.017-0.878c-0.058-0.93-0.058-2.451-0.058-4.386v-6.21h16.717l-0.059,10.586c0,1.649-0.032,2.792-0.227,5.791
				c1.671-0.165,2.508-0.197,3.657-0.197c1.215,0,1.942,0.032,3.77,0.202c-0.122-1.952-0.133-2.802-0.162-5.477l-0.114-5.731
				c-0.066-2.478-0.11-4.913-0.11-7.353c0-2.309,0.034-4.696,0.11-7.301L362.203,137.093z"/>
			<path fill="#724D17" d="M284.26,156.521l2.099,0.053v-4.679c-2.766,0.149-4.016,0.149-7.273,0.149c-2.697,0-5.021,0-7.07-0.117
				l-0.82-0.038v4.695l1.154-0.037c2.329-0.102,4.377-0.102,6.182-0.102C279.893,156.446,281.799,156.479,284.26,156.521z"/>
			<path fill="#724D17" d="M381.015,142.777c0-1.484,0.017-2.728,0.03-3.749c0.005-0.729,0.013-1.352,0.013-1.867
				c0.056-2.01,0.106-3.004,0.232-4.918c-1.375,0.159-2.122,0.202-3.649,0.202c-1.538,0-2.358-0.049-3.712-0.202
				c0.094,1.467,0.111,2.339,0.147,4.094l0.02,0.855c0.061,3.594,0.109,7.63,0.109,10.948l-0.048,9.272
				c0,2.568-0.066,4.403-0.116,5.493l-0.199,4.961l0.603-0.048c1.175-0.112,2.253-0.181,3.197-0.181
				c1.048,0,1.803,0.043,3.597,0.213l-0.063-1.016l-0.16-3.993c0-0.373-0.01-0.84-0.02-1.43c-0.011-1-0.035-2.339-0.035-3.999
				v-7.667C380.96,148.69,380.96,146.313,381.015,142.777z"/>
			<path fill="#724D17" d="M319.449,150.146c-1.949-1.904-4.212-2.637-12.08-3.914c-3.774-0.59-6.294-1.68-6.294-5.051
				c0-2.016,1.112-5.392,8.546-5.392c3.936,0,7.433,0.925,10.19,2.68v-5.194c-3.69-1.494-6.569-2.053-10.474-2.053
				c-9.261,0-15.242,4.429-15.242,11.278c0,2.828,1.079,5.205,3.047,6.683c1.977,1.616,4.078,2.355,9.02,3.19
				c7.166,1.181,8.981,1.877,8.981,5.594c0,3.828-3.647,6.104-9.75,6.104c-3.669,0-6.851-0.834-10.465-2.754v4.86
				c0.492,0.239,0.92,0.42,1.228,0.553l0.193,0.079c3.544,1.457,6.675,2.106,10.14,2.106c9.253,0,15.471-4.823,15.471-12
				C321.958,154.113,321.09,151.773,319.449,150.146z"/>
			<path fill="#724D17" d="M263.429,137.13l4.527,0.139v-5.126c-2.912,0.144-4.575,0.186-9.529,0.186h-10.158
				c-4.912,0-6.575-0.042-9.475-0.186v5.126l4.504-0.139l6.699-0.074v21.077c0,2.026-0.108,4.992-0.272,7.928l-0.119,1.786
				c1.63-0.154,2.502-0.208,3.771-0.208c1.261,0,2.053,0.043,3.708,0.208c-0.217-3.499-0.335-7.007-0.335-9.714v-21.077l2.63,0.074
				H263.429z"/>
			<path fill="#724D17" d="M406.674,152.05c3.282,5.359,4.377,7.231,5.78,9.682l0.296,0.521c1.201,2.137,1.832,3.265,2.992,5.63
				c2.125-0.191,3.057-0.234,4.457-0.234c1.26,0,2.117,0.032,4.11,0.17c-0.993-1.303-1.58-2.201-3.165-4.616l-0.274-0.419
				c-4.065-6.338-4.468-7.023-6.708-10.788l-0.506-0.846l0.982-0.117c2.253-0.26,3.033-0.484,4.37-1.052
				c2.938-1.325,4.838-4.584,4.838-8.306c0-2.781-1.104-5.248-3.118-6.95c-2.298-1.903-4.577-2.398-11.079-2.398h-17.003
				c0.1,1.361,0.116,2.116,0.153,3.882l0.021,0.759c0.055,1.334,0.08,2.479,0.107,3.43c0.016,0.687,0.029,1.26,0.053,1.744v14.606
				c0,4.36-0.105,7.917-0.329,11.096c1.751-0.165,2.541-0.197,3.811-0.197c1.239,0,1.991,0.032,3.547,0.191
				c-0.196-2.973-0.287-5.688-0.287-8.497v-7.598h6.766L406.674,152.05z M399.723,136.955h9.216c4.733,0,7.666,0.823,7.666,4.896
				c0,4.365-2.832,5.216-7.724,5.216h-9.158V136.955z"/>
		</g>
		<g>
			<path fill="#138E27" d="M243.521,42.584v-8.098c6.913-3.807,13.33-5.291,21.397-5.291c12.683,0,22.884,4.626,26.823,12.075
				c2.313,4.625,3.133,8.922,3.133,18.679c0,3.636-0.16,8.257-0.16,13.717c0,4.956-0.168,9.087-0.168,12.569
				c0,12.735,0.492,16.031,3.128,25.623c-2.302-0.495-3.128-0.665-4.441-0.665c-1.318,0-1.974,0.17-3.95,0.665
				c-1.652-5.944-1.81-8.268-1.979-18.684c-2.302,6.455-3.785,8.938-7.078,12.405c-5.595,5.614-13.334,8.597-21.729,8.597
				c-14.976,0-25.505-9.756-25.505-23.645c0-6.955,3.288-13.888,8.56-17.694c3.123-2.137,6.903-3.967,11.032-5.291
				c2.128-0.489,7.067-1.978,14.641-3.961c9.212-2.652,12.187-3.812,20.079-7.943c-0.651-14.547-6.913-20.497-22.052-20.497
				C257.348,35.146,251.096,37.299,243.521,42.584 M287.304,61.757c-7.733,3.971-11.032,5.301-17.114,6.949l-12.18,3.307
				c-11.857,3.307-17.125,8.762-17.125,17.854c0,10.751,7.898,18.354,19.089,18.354c13.181,0,23.381-9.756,26.018-24.963
				C287.14,76.15,287.304,73.667,287.304,61.757"/>
			<path fill="#138E27" d="M315.751,31.674l-0.657,13.382c7.401-8.752,10.864-11.565,17.94-14.042
				c3.626-1.165,7.411-1.819,11.026-1.819c6.586,0,12.017,1.978,16.458,5.785c5.935,5.284,8.243,11.4,8.396,22.315v14.222
				l0.168,19.014c0,8.099,0.16,13.389,0.16,15.871c0.17,1.154,0.17,2.973,0.338,5.456c-2.149-0.495-2.964-0.665-4.446-0.665
				c-1.482,0-2.467,0.17-5.109,0.665c0.991-9.092,1.166-14.707,1.166-31.583V76.15l-0.175-14.718c0-10.74-0.667-14.393-3.95-18.524
				c-3.457-4.621-8.887-7.263-15.14-7.263c-9.708,0-18.443,5.615-26.176,16.695v5.455l0.168,22.81l0.494,23.15l0.328,8.103
				c-1.647-0.495-2.467-0.665-3.785-0.665c-0.826,0-2.144,0.17-3.959,0.33l-1.969,0.334c0.651-7.273,0.831-8.932,0.99-19.678
				c0.164-12.389,0.323-20.167,0.323-22.975c0-17.854-0.481-28.605-1.312-37.532c2.805,0.334,3.621,0.489,4.616,0.489
				C312.957,32.163,313.771,32.008,315.751,31.674"/>
			<path fill="#138E27" d="M390.121,31.674l-0.661,13.382c7.411-8.752,10.877-11.565,17.945-14.042
				c3.621-1.165,7.41-1.819,11.031-1.819c6.586,0,12.017,1.978,16.458,5.785c5.933,5.284,8.236,11.4,8.39,22.315v14.222
				l0.168,19.014c0,8.099,0.164,13.389,0.164,15.871c0.17,1.154,0.17,2.973,0.328,5.456c-2.139-0.495-2.957-0.665-4.441-0.665
				c-1.48,0-2.471,0.17-5.107,0.665c0.994-9.092,1.164-14.707,1.164-31.583V76.15l-0.17-14.718c0-10.74-0.656-14.393-3.953-18.524
				c-3.457-4.621-8.882-7.263-15.14-7.263c-9.713,0-18.442,5.615-26.176,16.695v5.455l0.165,22.81l0.497,23.15l0.329,8.103
				c-1.651-0.495-2.472-0.665-3.791-0.665c-0.82,0-2.139,0.17-3.949,0.33l-1.975,0.334c0.656-7.273,0.826-8.932,0.985-19.678
				c0.169-12.389,0.333-20.167,0.333-22.975c0-17.854-0.492-28.605-1.318-37.532c2.794,0.334,3.62,0.489,4.611,0.489
				C387.32,32.163,388.152,32.008,390.121,31.674"/>
			<path fill="#138E27" d="M476.47,42.584v-8.098c6.906-3.807,13.34-5.291,21.396-5.291c12.678,0,22.873,4.626,26.826,12.075
				c2.311,4.625,3.125,8.922,3.125,18.679c0,3.636-0.16,8.257-0.16,13.717c0,4.956-0.164,9.087-0.164,12.569
				c0,12.735,0.504,16.031,3.129,25.623c-2.307-0.495-3.129-0.665-4.441-0.665c-1.324,0-1.984,0.17-3.949,0.665
				c-1.656-5.944-1.811-8.268-1.984-18.684c-2.303,6.455-3.779,8.938-7.072,12.405c-5.605,5.614-13.324,8.597-21.73,8.597
				c-14.975,0-25.51-9.756-25.51-23.645c0-6.955,3.293-13.888,8.561-17.694c3.123-2.137,6.912-3.967,11.025-5.291
				c2.139-0.489,7.078-1.978,14.652-3.961c9.211-2.652,12.182-3.812,20.074-7.943c-0.646-14.547-6.912-20.497-22.053-20.497
				C490.29,35.146,484.044,37.299,476.47,42.584 M520.247,61.757c-7.734,3.971-11.033,5.301-17.104,6.949l-12.186,3.307
				c-11.859,3.307-17.129,8.762-17.129,17.854c0,10.751,7.908,18.354,19.102,18.354c13.154,0,23.379-9.756,25.996-24.963
				C520.083,76.15,520.247,73.667,520.247,61.757"/>
			<path fill="#138E27" d="M582.796,29.685v7.443c-3.303-1.159-4.781-1.483-7.572-1.483c-10.373,0-19.922,7.438-25.852,19.997
				c-0.164,7.943-0.164,11.241-0.164,16.047c0,11.065,0.164,20.662,0.818,33.061l0.328,7.108c-1.809-0.665-2.301-0.665-4.275-0.665
				c-2.135,0-3.129,0.17-5.262,0.665c0.646-8.268,0.826-10.086,0.826-23.144l0.158-18.514c0-16.542-0.486-30.429-1.16-38.526
				c2.309,0.334,3.303,0.489,4.447,0.489c1.32,0,2.145-0.154,4.119-0.489v2.312v6.45v4.466v1.808
				c5.766-9.251,11.688-14.217,19.262-16.53c2.293-0.653,4.939-0.984,7.893-0.984C578.349,29.195,579.661,29.195,582.796,29.685"/>
			<path fill="#138E27" d="M592.833,42.908c11.186-10.241,18.605-13.713,30.113-13.713c20.912,0,34.574,16.36,34.574,41.339
				c0,25.612-15.971,43.642-38.521,43.642c-13.832,0-25.838-7.444-30.281-19.024c-2.639-6.928-3.291-11.575-3.291-23.969v-2.808
				V53.33V34.816c0-13.559-0.17-21.827-0.334-24.804c0-1.989-0.174-4.961-0.502-8.927c2.471,0.33,3.461,0.5,4.785,0.5
				c1.312,0,2.293-0.17,4.934-0.5c-0.656,7.273-0.656,9.097-0.986,19.007l-0.328,15.212L592.833,42.908z M592.833,50.692v21.48
				c0,15.717,2.637,24.139,9.379,29.769c4.773,4.137,10.867,6.28,17.443,6.28c18.443,0,29.803-14.217,29.803-37.687
				c0-13.069-2.303-20.677-8.236-27.126c-5.1-5.456-11.525-8.263-19.424-8.263c-8.23,0-15.811,3.142-22.555,9.257
				C597.433,46.056,595.294,48.204,592.833,50.692"/>
			<path fill="#138E27" d="M700.884,29.195c22.211,0,38.35,17.844,38.35,42.494c0,24.623-16.299,42.488-38.35,42.488
				c-22.053,0-39.018-18.359-39.018-42.488C661.866,47.714,678.831,29.195,700.884,29.195 M701.044,35.146
				c-18.771,0-31.115,14.376-31.115,36.543c0,21.98,12.344,36.533,30.955,36.533c18.428,0,30.281-14.217,30.281-36.533
				C731.165,49.368,719.312,35.146,701.044,35.146"/>
			<path fill="#138E27" d="M789.829,29.685v7.443c-3.299-1.159-4.77-1.483-7.568-1.483c-10.375,0-19.92,7.438-25.838,19.997
				c-0.17,7.943-0.17,11.241-0.17,16.047c0,11.065,0.17,20.662,0.82,33.061l0.328,7.108c-1.811-0.665-2.297-0.665-4.277-0.665
				c-2.139,0-3.135,0.17-5.273,0.665c0.664-8.268,0.828-10.086,0.828-23.144l0.158-18.514c0-16.542-0.482-30.429-1.148-38.526
				c2.301,0.334,3.297,0.489,4.445,0.489c1.32,0,2.145-0.154,4.119-0.489v2.312v6.45v4.466v1.808
				c5.764-9.251,11.688-14.217,19.258-16.53c2.303-0.653,4.949-0.984,7.898-0.984C785.382,29.195,786.706,29.195,789.829,29.685"/>
		</g>
	</g>
</g>
</svg>
